<svg xmlns="http://www.w3.org/2000/svg" viewBox="0 0 64 64" width="256px" height="256px"><polygon fill="#91949b" points="54,62 7,62 7,55 10,45 23,37 45,37 49,43 54,56"/><path fill="#efc88e" d="M29,44c0.18,1.163-0.436,3.237,1.035,6.474c1.471,3.238,3.612,7.62,5.083,7.524 c1.471-0.096,4.333-3.904,5.412-6.667C41.608,48.569,42,46.094,42,46.094L29,44z"/><path fill="#f9dd8f" d="M55.98,26.299c-0.202-1.963-2.48-11.709-2.714-12.167c-0.728-1.419-2.383-1.419-2.913-0.473 l-6.245,26.123C43.2,44.74,48.302,58,48.302,58c4.039-1.623,4.436-4.732,4.436-4.732s-2.781-7.895-2.781-10.477 c0-2.582,1.209-5.869,3.006-9.193C54.789,30.219,56.183,28.262,55.98,26.299z"/><path fill="#f9dd8f" d="M18.665,14.666c0.212-1.845-2.602-2.098-3.401-1.054c-0.799,1.044-1.897,2.817-2.097,4.277 c-0.2,1.461-0.499,6.99,0.999,10.539C15.663,31.977,18.899,36.349,19,40c0.101,3.651-2,19-2,19c3.342,0,7-1.392,7-4 s-0.032-8.833,0-10c0.076-2.699,2.733-5.558,2-9L18.665,14.666z"/><path fill="#f9dd8f" d="M51,19.354C51.031,10.322,43.658,3,34.602,3c-9.057,0-16.75,6.327-16.6,16.194 c0.2,13.202,8.424,12.869,10.163,21.871C29.361,47.256,32.049,49,35.922,49s6.819-2.401,7.622-7.335 C44.975,32.864,50.966,29.664,51,19.354z"/><path fill="#f9e3ae" d="M34.602,8c3.068,0,5.948,1.194,8.109,3.363c1.332,1.337,2.288,2.944,2.815,4.695 c0.003,0.011,0.006,0.021,0.009,0.032c0.565,1.897,2.225,3.253,4.204,3.26L51,19.354C51.031,10.322,43.658,3,34.602,3l0,0 c-4.842,0-9.295,1.809-12.367,5l0.417,0.383c1.724,1.586,4.229,1.863,6.338,0.844c0.01-0.005,0.02-0.01,0.03-0.014 C30.69,8.425,32.606,8,34.602,8"/><path fill="#8d6c9f" d="M35.922,50c-4.875,0-7.57-2.697-8.738-8.746c-0.686-3.549-2.477-5.56-4.373-7.688 c-2.666-2.993-5.688-6.385-5.809-14.356c-0.072-4.719,1.533-8.88,4.641-12.035C24.929,3.838,29.532,2,34.603,2 c4.674,0,9.063,1.821,12.358,5.128c3.266,3.276,5.056,7.62,5.04,12.229c-0.02,6.061-2.029,9.793-3.971,13.402 c-1.492,2.772-2.901,5.391-3.499,9.065C43.686,47.021,40.548,50,35.922,50z M34.603,4c-4.531,0-8.627,1.626-11.535,4.579 c-2.723,2.765-4.129,6.43-4.065,10.6c0.109,7.229,2.632,10.06,5.302,13.057c1.993,2.237,4.053,4.55,4.843,8.64 C30.29,46.788,32.682,48,35.922,48c3.597,0,5.954-2.307,6.635-6.495c0.651-4.007,2.207-6.897,3.711-9.692 c1.91-3.55,3.713-6.901,3.732-12.462c0,0,0,0,0-0.001c0.014-4.073-1.568-7.913-4.456-10.811C42.627,5.612,38.741,4,34.603,4z"/><path fill="#8d6c9f" d="M44.398,16.834c-0.41,0-0.793-0.253-0.94-0.661c-0.188-0.519,0.082-1.092,0.601-1.279 l1.881-0.679c0.521-0.191,1.092,0.08,1.28,0.602c0.188,0.519-0.082,1.092-0.601,1.279l-1.881,0.679 C44.625,16.815,44.511,16.834,44.398,16.834z"/><path fill="#8d6c9f" d="M42.026,13.094c-0.258,0-0.515-0.099-0.71-0.297c-0.389-0.392-0.386-1.025,0.007-1.414 l1.421-1.407c0.393-0.388,1.027-0.386,1.414,0.008c0.389,0.392,0.386,1.025-0.007,1.414l-1.421,1.407 C42.535,12.997,42.28,13.094,42.026,13.094z"/><path fill="#8d6c9f" d="M38.309,10.675c-0.118,0-0.237-0.021-0.354-0.064c-0.517-0.195-0.777-0.772-0.582-1.289 l0.707-1.871c0.195-0.517,0.775-0.777,1.289-0.582c0.517,0.195,0.777,0.772,0.582,1.289l-0.707,1.871 C39.093,10.429,38.713,10.675,38.309,10.675z"/><path fill="#8d6c9f" d="M33.907,10.021c-0.528,0-0.969-0.413-0.998-0.946l-0.107-1.997 c-0.03-0.552,0.394-1.022,0.945-1.053c0.56-0.029,1.023,0.394,1.052,0.945l0.107,1.997c0.03,0.552-0.394,1.022-0.945,1.053 C33.943,10.021,33.925,10.021,33.907,10.021z"/><path fill="#8d6c9f" d="M29.54,11.076c-0.378,0-0.741-0.216-0.909-0.582l-0.835-1.817 c-0.23-0.502-0.011-1.096,0.491-1.326c0.501-0.232,1.095-0.012,1.326,0.49l0.835,1.817c0.23,0.502,0.011,1.096-0.491,1.326 C29.822,11.047,29.68,11.076,29.54,11.076z"/><g><path fill="#8d6c9f" d="M39.5,20c-0.828,0-1.5,0.671-1.5,1.499c0,0.828,0.671,1.5,1.499,1.501c0,0,0.001,0,0.001,0 c0.828,0,1.5-0.671,1.5-1.499c0-0.828-0.671-1.5-1.499-1.501C39.501,20,39.5,20,39.5,20z M25.5,21c-0.828,0-1.5,0.665-1.5,1.487 c0,0.822,0.671,1.488,1.499,1.488c0,0,0.001,0,0.001,0c0.828,0,1.5-0.665,1.5-1.487C27,21.667,26.329,21,25.501,21 C25.501,21,25.5,21,25.5,21z M36,26c-0.552,0-1,0.448-1,1c0,0.552,0.448,1,1,1s1-0.448,1-1C37,26.448,36.552,26,36,26z M31,26 c-0.552,0-1,0.448-1,1c0,0.552,0.448,1,1,1c0.552,0,1-0.448,1-1C32,26.448,31.552,26,31,26L31,26z"/></g><g><path fill="#efc88e" d="M36.988,35.861C37.122,38.752,36.141,40,34.849,40c-1.291,0-2.592-1.304-2.808-4.401 C31.842,32.708,32.354,31,33.646,31S36.868,33.28,36.988,35.861z"/></g><g><path fill="#8d6c9f" d="M35.063,59c-1.641,0-3.269-2.233-5.939-8.111c-1.171-2.579-1.125-4.503-1.095-5.775 c0.01-0.396,0.018-0.736-0.017-0.96c-0.084-0.546,0.29-1.057,0.835-1.142c0.547-0.084,1.057,0.288,1.142,0.835 c0.062,0.4,0.052,0.823,0.04,1.313c-0.027,1.156-0.065,2.739,0.917,4.901c2.719,5.984,3.817,6.849,4.163,6.941 c0.768-0.106,3.377-3.188,4.489-6.035c1.027-2.632,1.411-5.007,1.415-5.03c0.086-0.547,0.602-0.918,1.145-0.831 c0.545,0.086,0.917,0.599,0.831,1.144c-0.017,0.105-0.422,2.614-1.527,5.444c-0.938,2.4-4.003,7.153-6.279,7.302 C35.143,58.998,35.103,59,35.063,59z M34.85,41c-1.66,0-3.531-1.4-3.805-5.332c-0.17-2.458,0.146-4.079,0.963-4.956 C32.442,30.246,33.009,30,33.646,30l0,0c2.016,0,4.207,2.935,4.34,5.815v-0.001c0.092,1.987-0.29,3.443-1.135,4.329 C36.317,40.704,35.625,41,34.85,41z M33.646,32c-0.083,0-0.121,0.017-0.176,0.076c-0.104,0.111-0.614,0.802-0.431,3.453 C33.207,37.927,34.069,39,34.85,39c0.225,0,0.401-0.075,0.555-0.237c0.206-0.215,0.674-0.924,0.584-2.854c0-0.001,0-0.001,0-0.001 C35.888,33.732,34.256,32,33.646,32z"/></g><g><path fill="#8d6c9f" d="M17.001,60c-0.045,0-0.091-0.003-0.137-0.009c-0.547-0.075-0.93-0.58-0.855-1.127 c0.021-0.152,2.088-15.31,1.991-18.837c-0.062-2.244-1.506-4.923-2.902-7.514c-0.698-1.294-1.356-2.517-1.854-3.696 c-1.619-3.835-1.254-9.702-1.068-11.063c0.271-1.98,1.824-4.136,2.294-4.749c0.815-1.065,2.488-1.225,3.636-0.76 c1.087,0.439,1.683,1.411,1.553,2.535c-0.063,0.549-0.57,0.946-1.108,0.879c-0.549-0.062-0.942-0.559-0.879-1.107 c0.015-0.131,0.036-0.31-0.315-0.452c-0.533-0.215-1.169-0.049-1.298,0.121c-0.775,1.012-1.737,2.616-1.9,3.805 c-0.16,1.171-0.498,6.633,0.93,10.015c0.461,1.092,1.098,2.273,1.772,3.524c1.507,2.797,3.066,5.688,3.141,8.408 c0.102,3.689-1.922,18.533-2.009,19.163C17.922,59.637,17.493,60,17.001,60z M48.302,59c-0.397,0-0.773-0.237-0.929-0.629 c-0.217-0.544-5.307-13.37-4.356-18.552c0.1-0.543,0.621-0.906,1.164-0.803c0.543,0.1,0.903,0.62,0.803,1.164 c-0.703,3.831,2.828,13.895,4.247,17.448c0.205,0.513-0.045,1.095-0.558,1.3C48.551,58.978,48.425,59,48.302,59z M24,56 c-0.552,0-1-0.447-1-1l-0.006-3.173C22.986,49,22.978,45.796,23,44.973c0.036-1.288,0.554-2.553,1.056-3.776 c0.656-1.602,1.334-3.257,0.966-4.988c-0.115-0.54,0.229-1.071,0.77-1.187c0.541-0.115,1.071,0.229,1.187,0.771 c0.498,2.335-0.336,4.368-1.071,6.163c-0.453,1.105-0.881,2.15-0.907,3.073c-0.022,0.793-0.013,4.12-0.006,6.794L25,55 C25,55.553,24.552,56,24,56z M52.737,54.269c-0.413,0-0.798-0.257-0.943-0.668c-0.291-0.824-2.837-8.134-2.837-10.81 c0-3.211,1.7-7.029,3.126-9.668c0.341-0.631,0.667-1.212,0.971-1.754c1.243-2.218,2.065-3.684,1.933-4.968 c-0.195-1.896-2.38-11.185-2.637-11.873c-0.159-0.303-0.458-0.522-0.773-0.528c-0.13,0.015-0.286,0.035-0.349,0.147 c-0.269,0.482-0.879,0.652-1.361,0.385c-0.482-0.271-0.654-0.88-0.384-1.361c0.413-0.739,1.213-1.159,2.131-1.171 c1.065,0.02,2.016,0.646,2.544,1.677c0.375,0.729,2.642,10.793,2.819,12.52c0.197,1.914-0.799,3.691-2.177,6.151 c-0.299,0.533-0.62,1.105-0.956,1.727c-1.888,3.492-2.886,6.507-2.886,8.717c0,1.977,1.966,7.994,2.724,10.146 c0.183,0.521-0.09,1.092-0.611,1.275C52.959,54.25,52.848,54.269,52.737,54.269z"/></g><g><path fill="#8d6c9f" d="M54,62c-0.552,0-1-0.447-1-1c0-4.561-0.581-6.061-1.315-7.958c-0.205-0.529-0.419-1.083-0.633-1.726 c-0.175-0.524,0.108-1.091,0.632-1.265c0.525-0.175,1.09,0.108,1.265,0.632c0.203,0.609,0.407,1.134,0.601,1.636 C54.328,54.329,55,56.065,55,61C55,61.553,54.552,62,54,62z M7,62c-0.552,0-1-0.447-1-1c0-16.887,5.717-19.29,9.5-20.881 c0.762-0.32,1.419-0.597,1.93-0.945c0.457-0.309,1.079-0.193,1.39,0.263c0.312,0.456,0.194,1.078-0.262,1.39 c-0.677,0.462-1.457,0.79-2.283,1.137C12.783,43.432,8,45.442,8,61C8,61.553,7.552,62,7,62z"/></g></svg>