<svg xmlns="http://www.w3.org/2000/svg" viewBox="0 0 64 64" width="256px" height="256px"><rect width="58" height="40" x="3" y="5" fill="#c2cde7" rx="2" ry="2"/><path fill="#cfd9ed" d="M3 37H61V41H3z"/><path fill="#c5e4fa" d="M3 9H61V37H3z"/><path fill="#e3f2ff" d="M45.93 37L60 22.93 60 9 57.86 9 29.86 37 45.93 37zM25.57 37L53.57 9 47.14 9 19.14 37 25.57 37zM14.86 37L42.86 9 37.5 9 9.5 37 14.86 37z"/><path fill="#fff8f8" d="M10.5 13L11.74 15.26 14 16.5 11.74 17.74 10.5 20 9.26 17.74 7 16.5 9.26 15.26 10.5 13zM47.42 13.16L48.27 14.73 49.84 15.58 48.27 16.44 47.42 18 46.56 16.44 45 15.58 46.56 14.73 47.42 13.16zM50.65 30.7L51.23 31.77 52.3 32.35 51.23 32.94 50.65 34 50.06 32.94 49 32.35 50.06 31.77 50.65 30.7z"/><path fill="#faefde" d="M43.54,33h0c.28,0,1.17-.71,1.63-2.39s0-2.82-.17-2.88c0,0-1.69-.29-1.71-.61a10.76,10.76,0,0,0-.16-1.41,5.09,5.09,0,0,1,.07-1.49,18.74,18.74,0,0,0,.12-4.7c-.3-2.91-2.06-4.65-4.73-4.65a1,1,0,0,1-.56-.18A11.64,11.64,0,0,0,32,13h-.94c-5.71,0-9.84,2.83-11.53,7.83.65-.07.43.37.89.8s1.59.6,1.16,1.73a10.75,10.75,0,0,0-.85,3.71c0,.33-1.69-.25-1.71-.25-.23.08-.64,2-.17,3.74S22,33,22,33a38.48,38.48,0,0,0,1.49,5.14C25.56,41.44,28.62,44,32,44c4.87,0,9-5.23,10.61-10.4A.94.94,0,0,1,43.54,33Z"/><path fill="#f6d397" d="M43.29,27a10.77,10.77,0,0,0-.15-1.34,5.09,5.09,0,0,1,.07-1.49,18.74,18.74,0,0,0,.12-4.7c-.3-2.92-2.07-4.66-4.74-4.65a.91.91,0,0,1-.54-.18A11.63,11.63,0,0,0,32,13h-.94c-5.71,0-9.84,2.83-11.53,7.83.65-.07.43.37.89.8s1.59.6,1.16,1.73A10.79,10.79,0,0,0,20.77,27l.12.1A3,3,0,0,1,22,29.43V33l.18.76a6.53,6.53,0,0,0,5.39,4.92,30.94,30.94,0,0,0,8.92,0A6.52,6.52,0,0,0,42,33V29.47a3,3,0,0,1,1.16-2.37Z"/><path fill="#f9e3ae" d="M43,24l-3.37.92a29,29,0,0,1-15.26,0L21,24s-1.08-.86-1.44-1.2.65-1.79,0-1.72C21.25,15.92,25.37,13,31.09,13H32a11.36,11.36,0,0,1,6,1.7.91.91,0,0,0,.55.19c2.67,0,4.44,1.79,4.74,4.8A13.8,13.8,0,0,1,43,24S42.8,23.42,43,24Z"/><path fill="#72caaf" d="M9,58.68a.83.83,0,0,0,.82.82H54.37a.83.83,0,0,0,.82-.82V52.33A7.46,7.46,0,0,0,51,45.63L39.77,39.27a9.12,9.12,0,0,1-7.67,3.38,9.12,9.12,0,0,1-7.67-3.38L13.22,45.63A7.46,7.46,0,0,0,9,52.33Z"/><path fill="#66bfa1" d="M13,54H51a4,4,0,0,1,4,4h0a1,1,0,0,1-1,1H10a1,1,0,0,1-1-1H9A4,4,0,0,1,13,54Z"/><path fill="#8d6c9f" d="M57 40H55.08a1 1 0 0 0 0 2H57a1 1 0 0 0 0-2zM33 8H31.08a1 1 0 1 0 0 2H33a1 1 0 0 0 0-2z"/><path fill="#8d6c9f" d="M59,4H5A3,3,0,0,0,2,7V43a3,3,0,0,0,3,3h7.23A9,9,0,0,0,8,53.61V57a3,3,0,0,0,3,3H53a3,3,0,0,0,3-3V53.61A9,9,0,0,0,51.77,46H59a3,3,0,0,0,3-3V7A3,3,0,0,0,59,4ZM54,53.61V57a1,1,0,0,1-1,1H11a1,1,0,0,1-1-1V53.61a7,7,0,0,1,3.49-6.06l11.88-6.88a1,1,0,0,0,.27-1.5,17.65,17.65,0,0,1-3.16-6,1,1,0,0,0-1-.72h0c-.23,0-1-.69-1.35-2.14a3.8,3.8,0,0,1,0-2.52.52.52,0,0,1,.16.08,1,1,0,0,0,1.54-.79,10.24,10.24,0,0,1,.76-3.44,1.83,1.83,0,0,0-.28-2.12A2,2,0,0,0,20.87,21c1.56-4.5,5.23-7,10.28-7H32a10.34,10.34,0,0,1,5.37,1.51,1,1,0,0,0,.62.2c2.33,0,3.87,1.58,4.14,4.23A18.06,18.06,0,0,1,42,24.32,5.07,5.07,0,0,0,42,25.76a10.3,10.3,0,0,1,.14,1.3,1,1,0,0,0,1.54.79l.11-.07a3.37,3.37,0,0,1,.06,2.51c-.39,1.45-1.12,2.11-1.34,2.14h0a1,1,0,0,0-1,.72,17.65,17.65,0,0,1-3.16,6,1,1,0,0,0,.27,1.5l11.88,6.88A7,7,0,0,1,54,53.61ZM59,44H48.36l-7.75-4.49a20,20,0,0,0,2.64-5.23,5,5,0,0,0,2.49-3.46c.66-2.48,0-4.57-1.48-5L44,25.79c0-.12,0-.24-.06-.36a6.58,6.58,0,0,1,.08-.85,19.85,19.85,0,0,0,.11-4.83c-.35-3.55-2.62-5.88-5.82-6A12.69,12.69,0,0,0,32,12h-.86c-6.54,0-11.28,3.81-12.67,10.2a1,1,0,0,0,1.36,1.14,4.78,4.78,0,0,1,.91-.27A13.29,13.29,0,0,0,20,25.79l-.28.05c-1.52.41-2.14,2.5-1.47,5a5,5,0,0,0,2.49,3.46,20,20,0,0,0,2.64,5.23L15.64,44H5a1,1,0,0,1-1-1V38H19.08a1,1,0,0,0,0-2H4V10H27a1,1,0,0,0,0-2H4V7A1,1,0,0,1,5,6H59a1,1,0,0,1,1,1V8H37a1,1,0,0,0,0,2H60V36H45.08a1,1,0,0,0,0,2H60v5A1,1,0,0,1,59,44Z"/><path fill="#8d6c9f" d="M47 52a1 1 0 0 0-1 1v2a1 1 0 0 0 2 0V53A1 1 0 0 0 47 52zM52 56a1 1 0 0 0 1-1V53a1 1 0 0 0-2 0v2A1 1 0 0 0 52 56zM42 52a1 1 0 0 0-1 1v2a1 1 0 0 0 2 0V53A1 1 0 0 0 42 52zM37 52a1 1 0 0 0-1 1v2a1 1 0 0 0 2 0V53A1 1 0 0 0 37 52zM32 52a1 1 0 0 0-1 1v2a1 1 0 0 0 2 0V53A1 1 0 0 0 32 52zM27 52a1 1 0 0 0-1 1v2a1 1 0 0 0 2 0V53A1 1 0 0 0 27 52zM22 52a1 1 0 0 0-1 1v2a1 1 0 0 0 2 0V53A1 1 0 0 0 22 52zM17 52a1 1 0 0 0-1 1v2a1 1 0 0 0 2 0V53A1 1 0 0 0 17 52zM12 52a1 1 0 0 0-1 1v2a1 1 0 0 0 2 0V53A1 1 0 0 0 12 52z"/></svg>