<svg xmlns="http://www.w3.org/2000/svg" viewBox="0 0 64 64" width="256px" height="256px"><path fill="#ed7899" d="M37 3H49V45H37z"/><path fill="#f283a5" d="M37 3H49V9H37z"/><path fill="#85cbf8" d="M25 7H37V45H25z"/><path fill="#9fddff" d="M25 7H37V13H25z"/><path fill="#72caaf" d="M49 13H57V46H49z"/><path fill="#88d7b6" d="M49 13H57V19H49z"/><path fill="#88d7b6" d="M49 13H57V19H49z"/><path fill="#f9e3ae" d="M11.19 12.32H21.369999999999997V43.6H11.19z" transform="rotate(15.33 16.282 27.955)"/><path fill="#faefde" d="M14.84 12.81H25.02V16.46H14.84z" transform="rotate(15.33 19.937 14.64)"/><path fill="#f9dd8f" d="M9 55H13V63H9zM51 55H55V63H51z"/><path fill="#cda1a7" d="M1.5 45.5H62.5V54.5H1.5z"/><path fill="#c4939c" d="M5.5,50h53a4,4,0,0,1,4,4v.5a0,0,0,0,1,0,0H1.5a0,0,0,0,1,0,0V54A4,4,0,0,1,5.5,50Z"/><path fill="#8d6c9f" d="M12 48a1 1 0 0 0-1 1v2a1 1 0 0 0 2 0V49A1 1 0 0 0 12 48zM7 48a1 1 0 0 0-1 1v2a1 1 0 0 0 2 0V49A1 1 0 0 0 7 48zM17 48a1 1 0 0 0-1 1v2a1 1 0 1 0 2 0V49A1 1 0 0 0 17 48zM22 48a1 1 0 0 0-1 1v2a1 1 0 0 0 2 0V49A1 1 0 0 0 22 48zM27 48a1 1 0 0 0-1 1v2a1 1 0 0 0 2 0V49A1 1 0 0 0 27 48zM32 48a1 1 0 0 0-1 1v2a1 1 0 1 0 2 0V49A1 1 0 0 0 32 48zM37 48a1 1 0 0 0-1 1v2a1 1 0 0 0 2 0V49A1 1 0 0 0 37 48zM42 48a1 1 0 0 0-1 1v2a1 1 0 0 0 2 0V49A1 1 0 0 0 42 48zM47 48a1 1 0 0 0-1 1v2a1 1 0 0 0 2 0V49A1 1 0 0 0 47 48zM57 48a1 1 0 0 0-1 1v2a1 1 0 0 0 2 0V49A1 1 0 0 0 57 48zM52 48a1 1 0 0 0-1 1v2a1 1 0 0 0 2 0V49A1 1 0 0 0 52 48z"/><path fill="#8d6c9f" d="M61,44H58V15a3,3,0,0,0-3-3H51a3,3,0,0,0-1,.18V5a3,3,0,0,0-3-3H39a3,3,0,0,0-3,3V6.18A3,3,0,0,0,35,6H27a3,3,0,0,0-3,3v3.66a3,3,0,0,0-.7-.3L17.5,10.8a3,3,0,0,0-3.67,2.12L6.58,40A3,3,0,0,0,8.7,43.64L10,44H3a3,3,0,0,0-3,3v6a3,3,0,0,0,3,3H8v5a3,3,0,0,0,6,0V56H50v5a3,3,0,0,0,6,0V56h5a3,3,0,0,0,3-3V47A3,3,0,0,0,61,44ZM51,14h4a1,1,0,0,1,1,1V44H50V42h4a1,1,0,0,0,0-2H50V20h4a1,1,0,0,0,0-2H50V15A1,1,0,0,1,51,14ZM38,5a1,1,0,0,1,1-1h8a1,1,0,0,1,1,1V44H38V5ZM26,9a1,1,0,0,1,1-1h8a1,1,0,0,1,1,1V44H26ZM8.51,40.49l7.25-27A1,1,0,0,1,17,12.73l5.8,1.55a1,1,0,0,1,.71,1.23l-7.25,27a1,1,0,0,1-1.22.71l-5.8-1.55A1,1,0,0,1,8.51,40.49Zm9.66,2.59L24,21.33V44H17.73A3,3,0,0,0,18.17,43.08ZM12,61a1,1,0,0,1-2,0V56h2Zm42,0a1,1,0,0,1-2,0V56h2Zm8-8a1,1,0,0,1-1,1H3a1,1,0,0,1-1-1V47a1,1,0,0,1,1-1H61a1,1,0,0,1,1,1Z"/><path fill="#8d6c9f" d="M33 12H29a1 1 0 0 0 0 2h4a1 1 0 0 0 0-2zM41 10h4a1 1 0 0 0 0-2H41a1 1 0 0 0 0 2zM41 42h4a1 1 0 0 0 0-2H41a1 1 0 0 0 0 2zM33 40H29a1 1 0 0 0 0 2h4a1 1 0 0 0 0-2zM16.92 16.86l3.86 1A1 1 0 1 0 21.3 16l-3.86-1a1 1 0 0 0-.52 1.93zM15.79 40.37a1 1 0 0 0-.71-1.22l-3.86-1A1 1 0 1 0 10.7 40l3.86 1a1 1 0 0 0 1.22-.71z"/></svg>