<svg xmlns="http://www.w3.org/2000/svg" viewBox="0 0 64 64" width="256px" height="256px"><path fill="#85cbf8" d="M8,12h48c1.105,0,2,0.895,2,2v42c0,1.105-0.895,2-2,2H8c-1.105,0-2-0.895-2-2V14 C6,12.895,6.895,12,8,12z"/><path fill="#ed7899" d="M10,52h44c2.209,0,4,1.791,4,4l0,0c0,1.1-0.9,2-2,2H8c-1.1,0-2-0.9-2-2l0,0C6,53.791,7.791,52,10,52z"/><path fill="#ace3ff" d="M8,12h48c1.105,0,2,0.895,2,2v6c0,1.657-1.343,3-3,3H9c-1.657,0-3-1.343-3-3v-6 C6,12.895,6.895,12,8,12z"/><path fill="#ffefb8" d="M16 6c1.105 0 2 .895 2 2v8c0 1.105-.895 2-2 2s-2-.895-2-2V8C14 6.895 14.895 6 16 6zM32 6c1.105 0 2 .895 2 2v8c0 1.105-.895 2-2 2s-2-.895-2-2V8C30 6.895 30.895 6 32 6zM48 6c1.105 0 2 .895 2 2v8c0 1.105-.895 2-2 2s-2-.895-2-2V8C46 6.895 46.895 6 48 6z"/><path fill="#9fddff" d="M12.5 31l1.238 2.262L16 34.5l-2.262 1.238L12.5 38l-1.238-2.262L9 34.5l2.262-1.238L12.5 31zM52.502 39l.876 1.61L55 41.502l-1.622.876L52.502 44l-.892-1.622L50 41.502l1.61-.892L52.502 39zM10.502 45l.536.962L12 46.498l-.962.529L10.502 48l-.529-.973L9 46.498l.973-.536L10.502 45z"/><path fill="#fff" d="M23 29H32V38H23zM14 29H23V38H14zM32 29H41V38H32z"/><path fill="#faefde" d="M41 29H50V38H41z"/><path fill="#fff" d="M14 38H23V47H14zM23 38H32V47H23zM32 38H41V47H32z"/><path fill="#faefde" d="M41 38H50V47H41z"/><path fill="#8d6c9f" d="M12 25c.551 0 1-.449 1-1v-2c0-.551-.449-1-1-1s-1 .449-1 1v2C11 24.551 11.449 25 12 25zM17 25c.551 0 1-.449 1-1v-2c0-.551-.449-1-1-1s-1 .449-1 1v2C16 24.551 16.449 25 17 25zM22 25c.551 0 1-.449 1-1v-2c0-.551-.449-1-1-1s-1 .449-1 1v2C21 24.551 21.449 25 22 25zM27 25c.551 0 1-.449 1-1v-2c0-.551-.449-1-1-1s-1 .449-1 1v2C26 24.551 26.449 25 27 25zM32 25c.551 0 1-.449 1-1v-2c0-.551-.449-1-1-1-.551 0-1 .449-1 1v2C31 24.551 31.449 25 32 25zM37 25c.551 0 1-.449 1-1v-2c0-.551-.449-1-1-1s-1 .449-1 1v2C36 24.551 36.449 25 37 25zM42 25c.551 0 1-.449 1-1v-2c0-.551-.449-1-1-1s-1 .449-1 1v2C41 24.551 41.449 25 42 25zM47 25c.551 0 1-.449 1-1v-2c0-.551-.449-1-1-1s-1 .449-1 1v2C46 24.551 46.449 25 47 25zM52 25c.551 0 1-.449 1-1v-2c0-.551-.449-1-1-1s-1 .449-1 1v2C51 24.551 51.449 25 52 25zM54 51H10c-.551 0-1 .449-1 1s.449 1 1 1h44c.551 0 1-.449 1-1S54.551 51 54 51z"/><path fill="#8d6c9f" d="M56,11h-5V8c0-1.656-1.344-3-3-3s-3,1.344-3,3v3H35V8c0-1.656-1.344-3-3-3s-3,1.344-3,3v3H19V8 c0-1.656-1.344-3-3-3s-3,1.344-3,3v3H8c-1.656,0-3,1.344-3,3v42c0,1.656,1.344,3,3,3h48c1.656,0,3-1.344,3-3V14 C59,12.344,57.656,11,56,11z M47,8c0-0.551,0.449-1,1-1s1,0.449,1,1v8c0,0.551-0.449,1-1,1s-1-0.449-1-1V8z M31,8 c0-0.551,0.449-1,1-1c0.551,0,1,0.449,1,1v8c0,0.551-0.449,1-1,1c-0.551,0-1-0.449-1-1V8z M15,8c0-0.551,0.449-1,1-1 c0.551,0,1,0.449,1,1v8c0,0.551-0.449,1-1,1c-0.551,0-1-0.449-1-1V8z M57,56c0,0.551-0.449,1-1,1H8c-0.551,0-1-0.449-1-1V25 c0.551,0,1-0.449,1-1v-2c0-0.551-0.449-1-1-1v-7c0-0.551,0.449-1,1-1h5v3c0,1.656,1.344,3,3,3s3-1.344,3-3v-3h10v3 c0,1.656,1.344,3,3,3c1.656,0,3-1.344,3-3v-3h10v3c0,1.656,1.344,3,3,3s3-1.344,3-3v-3h5c0.551,0,1,0.449,1,1v7 c-0.551,0-1,0.449-1,1v2c0,0.551,0.449,1,1,1V56z"/><path fill="#8d6c9f" d="M50,28H14c-0.552,0-1,0.448-1,1v18c0,0.552,0.448,1,1,1h36c0.552,0,1-0.448,1-1V29 C51,28.448,50.552,28,50,28z M49,37h-7v-7h7V37z M40,37h-7v-7h7V37z M31,37h-7v-7h7V37z M15,30h7v7h-7V30z M15,39h7v7h-7V39z M24,39 h7v7h-7V39z M33,39h7v7h-7V39z M49,46h-7v-7h7V46z"/></svg>