<svg xmlns="http://www.w3.org/2000/svg" viewBox="0 0 64 64" width="256px" height="256px"><path fill="#faefde" d="M35.44,27.28h0c-.22,0-.91-.57-1.27-1.93s0-2.28.13-2.32c0,0,1.32-.23,1.34-.49a9,9,0,0,1,.13-1.14,4.24,4.24,0,0,0-.06-1.21,15.6,15.6,0,0,1-.09-3.79c.23-2.35,1.61-3.75,3.7-3.75a.73.73,0,0,0,.44-.15,8.89,8.89,0,0,1,4.7-1.32h.74c4.47,0,7.69,2.28,9,6.31-.51-.06-.34.3-.7.65s-1.24.49-.91,1.4a8.91,8.91,0,0,1,.66,3c0,.26,1.32-.2,1.33-.2a4.69,4.69,0,0,1,.14,3c-.36,1.36-1.06,1.93-1.27,1.93a.76.76,0,0,0-.71.53,15.14,15.14,0,0,1-3.15,5.72c3.08,1.73-5.83,3.6-6.25,3.6-3.81,0-5.95-5.15-7.19-9.32A.74.74,0,0,0,35.44,27.28Z"/><path fill="#cda1a7" d="M36.36,19.4a4.82,4.82,0,0,0,4.23-3.23c1.94.65,2.58,2.58,11.63,1.94.9-.06,1,.25,1.29,0s-.47-1.3,0-1.25A8.23,8.23,0,0,0,45.15,11h-.68a8.25,8.25,0,0,0-4.36,1.23.68.68,0,0,1-.41.14c-1.93,0-3.21,1.3-3.43,3.48a14.48,14.48,0,0,0,.09,3.52Z"/><path fill="#faefde" d="M11.44,27.28h0c-.22,0-.91-.57-1.27-1.93s0-2.28.13-2.32c0,0,1.32-.23,1.34-.49a9,9,0,0,1,.13-1.14,4.24,4.24,0,0,0-.06-1.21,15.6,15.6,0,0,1-.09-3.79c.23-2.35,1.61-3.75,3.7-3.75a.73.73,0,0,0,.44-.15,8.89,8.89,0,0,1,4.7-1.32h.74c4.47,0,7.69,2.28,9,6.31-.51-.06-.34.3-.7.65s-1.24.49-.91,1.4a8.91,8.91,0,0,1,.66,3c0,.26,1.32-.2,1.33-.2a4.69,4.69,0,0,1,.14,3c-.36,1.36-1.06,1.93-1.27,1.93a.76.76,0,0,0-.71.53,15.14,15.14,0,0,1-3.15,5.72c3.08,1.73-5.83,3.6-6.25,3.6-3.81,0-5.95-5.15-7.19-9.32A.74.74,0,0,0,11.44,27.28Z"/><path fill="#72caaf" d="M48,47.15v2.39a1.88,1.88,0,0,1-1.88,1.88H3a2,2,0,0,1-2-2V47.15a10.34,10.34,0,0,1,5-8.86l9.45-5.69c2.39,3,5.55,5.17,9.05,5.17s6.66-2.15,9.05-5.17L43,38.29A10.34,10.34,0,0,1,48,47.15Z"/><path fill="#ed7899" d="M63,47.15v2.39a1.88,1.88,0,0,1-1.88,1.88H18a2,2,0,0,1-2-2V47.15a10.34,10.34,0,0,1,5-8.86l9.45-5.69c2.39,3,5.55,5.17,9.05,5.17s6.66-2.15,9.05-5.17L58,38.29A10.34,10.34,0,0,1,63,47.15Z"/><path fill="#dd6489" d="M59,46H21a4,4,0,0,0-4,4h0a1,1,0,0,0,1,1H62a1,1,0,0,0,1-1h0A4,4,0,0,0,59,46Z"/><path fill="#61bc9e" d="M43,46H5a4,4,0,0,0-4,4H1a1,1,0,0,0,1,1H46a1,1,0,0,0,1-1h0A4,4,0,0,0,43,46Z"/><path fill="#cda1a7" d="M12.36,19.4a4.82,4.82,0,0,0,4.23-3.23c1.94.65,2.58,2.58,11.63,1.94.9-.06,1,.25,1.29,0s-.47-1.3,0-1.25A8.23,8.23,0,0,0,21.15,11h-.68a8.25,8.25,0,0,0-4.36,1.23.68.68,0,0,1-.41.14c-1.93,0-3.21,1.3-3.43,3.48a14.48,14.48,0,0,0,.09,3.52Z"/><path fill="#c2cde7" d="M55,48.44v8H9v-8a10.12,10.12,0,0,1,4.9-8.67l9.24-5.57c2.34,3,5.43,5.06,8.86,5.06s6.52-2.11,8.86-5.06l9.24,5.57A10.12,10.12,0,0,1,55,48.44Z"/><path fill="#d6dff2" d="M41.45,39.35,32,44.07l-9.45-4.73a2.76,2.76,0,0,1-.72-4.42l.05-.05H42.12l.05.05A2.76,2.76,0,0,1,41.45,39.35Z"/><path fill="#faefde" d="M20.79,27h0c-.27,0-1.13-.71-1.59-2.4s0-2.83.17-2.89c0,0,1.65-.29,1.66-.62a11.15,11.15,0,0,1,.16-1.41,5.28,5.28,0,0,0-.07-1.5A19.43,19.43,0,0,1,21,13.5c.29-2.92,2-4.67,4.6-4.67a.91.91,0,0,0,.55-.18A11.07,11.07,0,0,1,32,7h.92c5.56,0,9.58,2.84,11.22,7.86-.63-.07-.42.37-.87.8s-1.55.61-1.13,1.74A11.1,11.1,0,0,1,43,21.14c0,.33,1.64-.25,1.66-.25a5.84,5.84,0,0,1,.17,3.76c-.45,1.69-1.32,2.4-1.59,2.4a.94.94,0,0,0-.88.66C40.78,32.89,36.74,38.14,32,38.14S23.22,32.89,21.67,27.7A.92.92,0,0,0,20.79,27Z"/><path fill="#cda1a7" d="M21.13,18.27a6.47,6.47,0,0,0,5.67-4.33c2.6.87,3.47,3.47,15.6,2.6,1.2-.09,1.38.34,1.73,0s-.63-1.74,0-1.67C42.49,9.84,38.48,7,32.92,7H32a11.07,11.07,0,0,0-5.85,1.65.91.91,0,0,1-.55.18C23,8.83,21.3,10.58,21,13.5a19.43,19.43,0,0,0,.12,4.72Z"/><path fill="#acb7d0" d="M51,52H13a4,4,0,0,0-4,4H9a1,1,0,0,0,1,1H54a1,1,0,0,0,1-1h0A4,4,0,0,0,51,52Z"/><path fill="#8d6c9f" d="M24.53 17.25A1 1 0 0 0 25.92 17l1.3-2 1.22.6a18.22 18.22 0 0 0 7.93 1.83h2.19a1 1 0 0 0 0-2H36.38a16.21 16.21 0 0 1-7.06-1.63L28 13.13a1.86 1.86 0 0 0-2.36.65l-1.37 2.08A1 1 0 0 0 24.53 17.25zM39.55 39.11L32 42.88l-7.55-3.78a1 1 0 0 0-.89 1.79l8 4a1 1 0 0 0 .89 0l8-4a1 1 0 1 0-.89-1.79zM47 50a1 1 0 0 0-1 1v2a1 1 0 0 0 2 0V51A1 1 0 0 0 47 50zM52 54a1 1 0 0 0 1-1V51a1 1 0 0 0-2 0v2A1 1 0 0 0 52 54zM42 50a1 1 0 0 0-1 1v2a1 1 0 0 0 2 0V51A1 1 0 0 0 42 50zM37 50a1 1 0 0 0-1 1v2a1 1 0 0 0 2 0V51A1 1 0 0 0 37 50zM32 50a1 1 0 0 0-1 1v2a1 1 0 0 0 2 0V51A1 1 0 0 0 32 50zM27 50a1 1 0 0 0-1 1v2a1 1 0 0 0 2 0V51A1 1 0 0 0 27 50zM22 50a1 1 0 0 0-1 1v2a1 1 0 0 0 2 0V51A1 1 0 0 0 22 50zM17 50a1 1 0 0 0-1 1v2a1 1 0 0 0 2 0V51A1 1 0 0 0 17 50zM12 50a1 1 0 0 0-1 1v2a1 1 0 0 0 2 0V51A1 1 0 0 0 12 50z"/><path fill="#8d6c9f" d="M59.34,37.56l-8.26-5.35a15.6,15.6,0,0,0,2.38-4.47,4.2,4.2,0,0,0,2-2.81c.55-2.06,0-3.8-1.31-4.15l-.08,0a10,10,0,0,0-.42-1.62l.28.1a1,1,0,0,0,1.36-1.14A9.81,9.81,0,0,0,45.16,10h-.67a10.28,10.28,0,0,0-1.86.2A12.48,12.48,0,0,0,32.86,6H32a12.69,12.69,0,0,0-6.3,1.72A5.72,5.72,0,0,0,21.31,10h-.82a10.06,10.06,0,0,0-5,1.34c-2.58.14-4.4,2-4.69,4.9A15.89,15.89,0,0,0,10.9,20c0,.24.07.53.06.59l0,.14-.09,0c-1.31.35-1.86,2.1-1.31,4.15a4.2,4.2,0,0,0,2,2.81,15.76,15.76,0,0,0,2,4l-9,5.81A10,10,0,0,0,0,46v3.21A2.81,2.81,0,0,0,2.81,52H8v3a3,3,0,0,0,3,3H53a3,3,0,0,0,3-3V52h5.11a2.81,2.81,0,0,0,2.81-2.81V46A10,10,0,0,0,59.34,37.56ZM26,9.71a1,1,0,0,0,.6-.2A10.34,10.34,0,0,1,32,8h.86c5,0,8.72,2.54,10.28,7a2,2,0,0,0-1.52.46,1.83,1.83,0,0,0-.28,2.12,10.24,10.24,0,0,1,.76,3.44,1,1,0,0,0,1.54.79l.11-.06a3.39,3.39,0,0,1,.06,2.5c-.39,1.45-1.12,2.11-1.34,2.14h0a1,1,0,0,0-1,.72c-1.39,4.68-5.2,9.66-9.51,9.66s-8.12-5-9.51-9.66a1,1,0,0,0-1-.72h0c-.23,0-1-.69-1.35-2.14a3.79,3.79,0,0,1,0-2.52.49.49,0,0,1,.16.08,1,1,0,0,0,1.54-.79,10.27,10.27,0,0,1,.14-1.3A5.08,5.08,0,0,0,22,18.32a18.06,18.06,0,0,1-.11-4.37C22.14,11.29,23.68,9.71,26,9.71ZM2.81,50A.81.81,0,0,1,2,49.19V46a8,8,0,0,1,3.67-6.74l9.18-5.94.28.29a1,1,0,1,0,1.39-1.44,13,13,0,0,1-3.24-5.51.93.93,0,0,0-.91-.71h0a2.46,2.46,0,0,1-.89-1.51,3.09,3.09,0,0,1-.07-1.59A1,1,0,0,0,12.82,22a7.76,7.76,0,0,1,.11-1,4.09,4.09,0,0,0-.05-1.19,13.87,13.87,0,0,1-.08-3.37c.2-2,1.3-3.11,3-3.11a1,1,0,0,0,.6-.2A7.74,7.74,0,0,1,20.27,12a8.29,8.29,0,0,0-.39,1.77A19.85,19.85,0,0,0,20,18.57a6.84,6.84,0,0,1,.08.85c0,.12,0,.25-.06.37l-.29.05c-1.52.41-2.14,2.5-1.47,5a5,5,0,0,0,2.49,3.46,19.8,19.8,0,0,0,2.66,5.23l-8.92,5.16A13,13,0,0,0,8,49.92V50ZM54,55a1,1,0,0,1-1,1H11a1,1,0,0,1-1-1V49.92a11,11,0,0,1,5.49-9.52l9.19-5.32A10.15,10.15,0,0,0,32,38.81a10.15,10.15,0,0,0,7.32-3.73l9.19,5.32A11,11,0,0,1,54,49.92Zm7.92-5.81a.81.81,0,0,1-.81.81H56v-.08a13,13,0,0,0-6.49-11.25L40.59,33.5a19.8,19.8,0,0,0,2.66-5.23,5,5,0,0,0,2.49-3.46c.66-2.48,0-4.57-1.47-5L44,19.79a13.3,13.3,0,0,0-.73-2.72,4.86,4.86,0,0,1,.91.27,1,1,0,0,0,1.36-1.14,14.47,14.47,0,0,0-1.6-4.2c.19,0,.38,0,.56,0h.67A7.72,7.72,0,0,1,52.87,17a1.61,1.61,0,0,0-1,.42,1.65,1.65,0,0,0-.27,1.89A7.8,7.8,0,0,1,52.16,22a1,1,0,0,0,.57.83,1,1,0,0,0,.83,0,3.07,3.07,0,0,1-.06,1.6,2.79,2.79,0,0,1-.84,1.51h0a1,1,0,0,0-1,.72,12.47,12.47,0,0,1-3.89,6.09,1,1,0,0,0,1.24,1.57c.23-.18.45-.37.66-.58l8.53,5.52A8,8,0,0,1,61.92,46Z"/></svg>