<svg xmlns="http://www.w3.org/2000/svg" viewBox="0 0 64 64" width="256px" height="256px"><path fill="#faefde" d="M29,12.5c0,3.037-2.463,5.5-5.5,5.5S18,15.537,18,12.5S20.463,7,23.5,7S29,9.463,29,12.5"/><path fill="#faefde" d="M46,12.5c0,3.037-2.463,5.5-5.5,5.5S35,15.537,35,12.5S37.463,7,40.5,7S46,9.463,46,12.5"/><path fill="#85cbf8" d="M22,41.429c0,0-2.5-6.429-10-6.429S2,41.429,2,41.429V44h20V41.429z"/><path fill="#faefde" d="M18,26c0,3.313-2.687,6-6,6s-6-2.687-6-6s2.687-6,6-6S18,22.687,18,26"/><path fill="#f283a5" d="M62,41.429c0,0-2.5-6.429-10-6.429s-10,6.429-10,6.429V44h20V41.429z"/><path fill="#faefde" d="M58,26c0,3.313-2.687,6-6,6s-6-2.687-6-6s2.687-6,6-6S58,22.687,58,26"/><path fill="#faefde" d="M39,34c0,3.865-3.135,7-7,7s-7-3.135-7-7s3.135-7,7-7S39,30.135,39,34"/><path fill="#72caaf" d="M46,54.1c0,0-3.85-9.1-14-9.1s-14,9.1-14,9.1V58h28V54.1z"/><path fill="none" stroke="#8d6c9f" stroke-linecap="round" stroke-linejoin="round" stroke-miterlimit="10" stroke-width="2" d="M29,12.5c0,3.037-2.463,5.5-5.5,5.5S18,15.537,18,12.5S20.463,7,23.5,7S29,9.463,29,12.5"/><path fill="none" stroke="#8d6c9f" stroke-linecap="round" stroke-linejoin="round" stroke-miterlimit="10" stroke-width="2" d="M46,12.5c0,3.037-2.463,5.5-5.5,5.5S35,15.537,35,12.5S37.463,7,40.5,7S46,9.463,46,12.5"/><path fill="none" stroke="#8d6c9f" stroke-linecap="round" stroke-linejoin="round" stroke-miterlimit="10" stroke-width="2" d="M22,41.429c0,0-2.5-6.429-10-6.429S2,41.429,2,41.429V44h20V41.429z"/><path fill="none" stroke="#8d6c9f" stroke-linecap="round" stroke-linejoin="round" stroke-miterlimit="10" stroke-width="2" d="M18,26	c0,3.313-2.687,6-6,6s-6-2.687-6-6s2.687-6,6-6S18,22.687,18,26"/><path fill="none" stroke="#8d6c9f" stroke-linecap="round" stroke-linejoin="round" stroke-miterlimit="10" stroke-width="2" d="M62,41.429c0,0-2.5-6.429-10-6.429s-10,6.429-10,6.429V44h20V41.429z"/><path fill="none" stroke="#8d6c9f" stroke-linecap="round" stroke-linejoin="round" stroke-miterlimit="10" stroke-width="2" d="M58,26	c0,3.313-2.687,6-6,6s-6-2.687-6-6s2.687-6,6-6S58,22.687,58,26"/><path fill="none" stroke="#8d6c9f" stroke-linecap="round" stroke-linejoin="round" stroke-miterlimit="10" stroke-width="2" d="M46,54.1c0,0-3.85-9.1-14-9.1s-14,9.1-14,9.1V58h28V54.1z"/><path fill="none" stroke="#8d6c9f" stroke-linecap="round" stroke-linejoin="round" stroke-miterlimit="10" stroke-width="2" d="M39,34	c0,3.865-3.135,7-7,7s-7-3.135-7-7s3.135-7,7-7S39,30.135,39,34"/><path fill="#8d6c9f" d="M24,51c-0.552,0-1,0.448-1,1v2c0,0.552,0.448,1,1,1s1-0.448,1-1v-2C25,51.448,24.552,51,24,51z"/><path fill="#8d6c9f" d="M29,51c-0.552,0-1,0.448-1,1v2c0,0.552,0.448,1,1,1s1-0.448,1-1v-2C30,51.448,29.552,51,29,51z"/><path fill="#8d6c9f" d="M35,51c-0.552,0-1,0.448-1,1v2c0,0.552,0.448,1,1,1s1-0.448,1-1v-2C36,51.448,35.552,51,35,51z"/><path fill="#8d6c9f" d="M40,51c-0.552,0-1,0.448-1,1v2c0,0.552,0.448,1,1,1s1-0.448,1-1v-2C41,51.448,40.552,51,40,51z"/></svg>