<svg xmlns="http://www.w3.org/2000/svg" viewBox="0 0 64 64" width="256px" height="256px"><path fill="#c2cde7" d="M59.77,24.46A12.29,12.29,0,0,0,46,15.26,12,12,0,0,0,40.2,18a4.06,4.06,0,0,1-2.65,1h-11a4.11,4.11,0,0,1-2.69-1,11.5,11.5,0,0,0-3.75-2.18A12,12,0,0,0,4.44,24c-3.4,12.7-2,26.38-.6,34.67a4,4,0,0,0,7,1.88,102.84,102.84,0,0,0,8.46-11.68A4,4,0,0,1,22.7,47H41.39a4,4,0,0,1,3.38,1.87,102.87,102.87,0,0,0,8.46,11.69,4,4,0,0,0,7-1.87C61.67,50.49,63,37,59.77,24.46Z"/><path fill="#b5c4e0" d="M43.29,42h-22a10,10,0,0,0-9.54,7l-3.06,9.7A1.78,1.78,0,0,0,10.43,61h0a4.22,4.22,0,0,0,.43-.45,102.83,102.83,0,0,0,8.45-11.68A4,4,0,0,1,22.7,47H41.39a4,4,0,0,1,3.39,1.88,102.86,102.86,0,0,0,8.45,11.68,4.21,4.21,0,0,0,.43.44h0a1.78,1.78,0,0,0,1.72-2.23L53,49.46A10,10,0,0,0,43.29,42Z"/><path fill="#ed7899" d="M23 28L18 28 18 23 15 23 15 28 10 28 10 31 15 31 15 36 18 36 18 31 23 31 23 28z"/><path fill="#8b8e98" d="M37 25L27 25 26 19 38 19 37 25z"/><path fill="#8d6c9f" d="M60.74,24.21a13.29,13.29,0,0,0-14.93-9.94,13.05,13.05,0,0,0-6.26,3,3.08,3.08,0,0,1-2,.77H32V15a3,3,0,0,1,3-3,5,5,0,0,0,5-5V2a1,1,0,0,0-2,0V7a3,3,0,0,1-3,3,5,5,0,0,0-5,5v3H26.52a3.12,3.12,0,0,1-2-.8,12.48,12.48,0,0,0-4.08-2.37A12.93,12.93,0,0,0,10,15.59a13.07,13.07,0,0,0-6.5,8.15c-3.37,12.58-2.2,26-.62,35.1a5,5,0,0,0,8.77,2.35,103,103,0,0,0,8.54-11.8A3,3,0,0,1,22.7,48H41.39a3,3,0,0,1,2.53,1.4,103.09,103.09,0,0,0,8.54,11.8A5,5,0,0,0,56.28,63a5.11,5.11,0,0,0,1.32-.17,5,5,0,0,0,3.63-4C62.79,49.94,64,36.68,60.74,24.21ZM37.56,20h.06l-1.11,3.32a1,1,0,0,1-.95.68H28.44a1,1,0,0,1-.95-.68L26.39,20H37.56Zm21.7,38.51A3,3,0,0,1,54,59.92a101,101,0,0,1-8.37-11.57A5,5,0,0,0,41.39,46H22.7a5,5,0,0,0-4.23,2.35,101,101,0,0,1-8.37,11.57,2.94,2.94,0,0,1-3.08,1A2.94,2.94,0,0,1,4.83,58.5c-1.54-8.87-2.7-22,.58-34.24a11.07,11.07,0,0,1,5.51-6.9,11,11,0,0,1,8.83-.64,10.49,10.49,0,0,1,3.43,2,5.41,5.41,0,0,0,.88.61l1.54,4.62A3,3,0,0,0,28.44,26h7.12a3,3,0,0,0,2.85-2.05l1.53-4.58a5.26,5.26,0,0,0,.93-.63,11.06,11.06,0,0,1,5.3-2.5A11.28,11.28,0,0,1,58.8,24.71C61.94,36.84,60.78,49.79,59.26,58.51Z"/><path fill="#8d6c9f" d="M32 40a1 1 0 0 0-1 1v2a1 1 0 0 0 2 0V41A1 1 0 0 0 32 40zM27 40a1 1 0 0 0-1 1v2a1 1 0 0 0 2 0V41A1 1 0 0 0 27 40zM22 40a1 1 0 0 0-1 1v2a1 1 0 0 0 2 0V41A1 1 0 0 0 22 40zM37 40a1 1 0 0 0-1 1v2a1 1 0 0 0 2 0V41A1 1 0 0 0 37 40zM42 40a1 1 0 0 0-1 1v2a1 1 0 0 0 2 0V41A1 1 0 0 0 42 40zM24 29a2 2 0 0 0-2-2H19V24a2 2 0 0 0-2-2H16a2 2 0 0 0-2 2v3H11a2 2 0 0 0-2 2v1a2 2 0 0 0 2 2h3v3a2 2 0 0 0 2 2h1a2 2 0 0 0 2-2V32h3a2 2 0 0 0 2-2zm-2 1H19a2 2 0 0 0-2 2v3H16V32a2 2 0 0 0-2-2H11V29h3a2 2 0 0 0 2-2V24h1v3a2 2 0 0 0 2 2h3zM47.5 32A2.5 2.5 0 1 0 50 34.5 2.5 2.5 0 0 0 47.5 32zM52.5 27A2.5 2.5 0 1 0 55 29.5 2.5 2.5 0 0 0 52.5 27zM47.5 22A2.5 2.5 0 1 0 50 24.5 2.5 2.5 0 0 0 47.5 22zM42.5 27A2.5 2.5 0 1 0 45 29.5 2.5 2.5 0 0 0 42.5 27zM39 36H25a1 1 0 0 0 0 2H39a1 1 0 0 0 0-2z"/></svg>