<svg xmlns="http://www.w3.org/2000/svg" viewBox="0 0 64 64" width="256px" height="256px"><path fill="#85cbf8" d="M32,3.557c-15.464,0-28,12.536-28,28s12.536,28,28,28s28-12.536,28-28S47.464,3.557,32,3.557z"/><path fill="#7bbeeb" d="M32,3.557v56c15.464,0,28-12.536,28-28S47.464,3.557,32,3.557z"/><path fill="#9fddff" d="M17,31.557c0-11.05,3.88-20.94,10-27.54C11.79,6.809,1.723,21.402,4.515,36.612 C6.614,48.049,15.563,56.998,27,59.097C20.88,52.497,17,42.607,17,31.557z"/><path fill="#75b8e5" d="M47,31.557c0,11.05-3.88,20.94-10,27.54c15.21-2.792,25.277-17.385,22.485-32.595 C57.386,15.066,48.437,6.116,37,4.017C43.1,10.617,47,20.507,47,31.557z"/><path fill="#72caaf" d="M50.022,39.18C49.774,38.959,49.327,38.053,49,38l-4-2c0.51-1.29-2.028-1.25-3.248-1.87 c-2.482-1.215-5.305-1.543-8-0.93c-0.642,0.212-1.265,0.48-1.86,0.8h-0.04c0.276,0.101,0.519,0.278,0.7,0.51 c0.39,0.61-0.17,1.34-0.55,2C31.166,37.923,32.043,43.666,33,45c1,1.36,3.51-0.62,4,1c0.149,0.657-0.884,1.337-1,2 c-0.353,3.193-1.245,5.13-1.878,8.29c-0.052,0.169-0.052,0.351,0,0.52c0.13,0.3,0.54,0.35,0.87,0.3 c0.941-0.268,1.785-0.803,2.43-1.54c2.9-2.76,6.745-4.75,9.578-7.57c0.924-0.805,1.465-1.898,2-3c0.222-0.809,0.649-2.238,1-3 c0.28-0.45,0.75-0.54,1-1C51.31,40.552,50.332,39.628,50.022,39.18z"/><path fill="#72caaf" d="M55.94,18.526c-0.241,1.999-0.357,4.072-0.347,6.2c0.452,1.575,1.164,3.101,2.073,4.443 c0.609,0.555,1.247,1.017,1.896,1.373l-0.361-5.168L55.94,18.526z"/><polygon fill="#72caaf" points="22,6 25,8 29,8 30,12 32,12 34,11 39,15 31,23 24,24 24,31 21,29 18,20 19,11 17,9"/><path fill="#72caaf" d="M39.63,10.301l1.273-4.968c-1.782-0.509-3.437-1.019-5.347-1.146L33.265,6.48l3.819,1.274 L39.63,10.301z"/><path fill="#8d6c9f" d="M25,32c-0.552,0-1-0.448-1-1v-7c0-0.44,0.288-0.829,0.71-0.957l3.172-0.961 c0.094-0.028,0.192-0.043,0.29-0.043h2.132l4.799-4.802c0.047-0.046,0.098-0.088,0.153-0.125l2.805-1.871l-3.523-3.525 l-1.839,1.84c-0.294,0.294-0.739,0.375-1.118,0.205l-2.546-1.146c-0.359-0.161-0.589-0.518-0.589-0.912V8.779L24.378,8.88 c-0.182,0.003-0.353-0.038-0.507-0.124l-2.546-1.401c-0.484-0.266-0.661-0.874-0.394-1.358s0.874-0.662,1.358-0.394l2.309,1.271 l4.816-0.121c0.011,0,0.023-0.002,0.034,0c0.118,0,0.231,0.021,0.336,0.059h0c0.001,0,0.002,0,0.003,0.001h0 c0.096,0.035,0.185,0.084,0.265,0.146c0,0,0,0,0,0c0.001,0.001,0.001,0.002,0.003,0.002c0,0,0.001,0,0.001,0.001 c0.155,0.12,0.273,0.285,0.336,0.476l0,0c0.001,0.001,0,0.002,0.001,0.003c0,0,0,0,0,0c0.03,0.092,0.047,0.19,0.049,0.292v0 c0,0,0,0,0,0c0,0.007,0,0.015,0,0.022v3.297l1.327,0.598l2.058-2.06c0,0,0,0,0,0v0c0,0,0.001,0,0.002-0.002 c0-0.001,0.002-0.001,0.002-0.002c0,0,0,0,0.002-0.002c0,0,0.001-0.001,0.001-0.001c0.001-0.001,0.001-0.001,0.002-0.002 c0.001,0,0,0,0.002-0.002c0.001,0,0.002-0.001,0.002-0.002c0.001-0.001,0.001-0.001,0.002-0.002c0.001,0,0.001-0.001,0.002-0.002 c0,0,0.001-0.001,0.001-0.001c0,0,0,0,0.001-0.001c0,0,0.002-0.001,0.002-0.002c0.001-0.001,0.001-0.002,0.002-0.002 c0.001-0.001,0.001-0.001,0.002-0.002c0,0,0.001-0.001,0.001-0.001l0,0c0.002-0.001,0.002-0.001,0.002-0.002 c0,0,0.001-0.001,0.002-0.001c0,0,0.001-0.001,0.002-0.002c0,0,0.001-0.001,0.002-0.002c0.002,0,0.002-0.001,0.002-0.002 c0.002,0.001,0.002-0.001,0.002-0.002c0,0,0,0,0,0c0,0,0.001-0.001,0.002-0.002h0c0,0,0.001-0.001,0.002-0.002 c0.001,0,0.002-0.001,0.002-0.002c0.001,0.001,0.002-0.001,0.002-0.002c0,0,0,0,0,0c0.001,0,0.001-0.001,0.002-0.002l0,0 c0.001,0,0.001-0.001,0.002-0.002l0,0c0.168-0.144,0.374-0.223,0.582-0.236l0,0c0.001,0,0.004,0,0.004,0 c0.003,0,0.003-0.001,0.005,0l0,0c0.001,0,0.002-0.001,0.003,0c0.018-0.001,0.036-0.001,0.054-0.001l0,0 c0.016,0,0.032,0,0.048,0.001c0,0,0.001,0,0.003,0c0,0,0.001,0,0.001,0c0.001,0,0.002-0.001,0.004,0c0,0,0.001,0,0.001,0 c0.224,0.013,0.443,0.1,0.62,0.262l0,0c0.001,0.001,0.003,0.001,0.002,0.002c0,0,0.001,0.001,0.002,0.002 c0,0,0.001,0.001,0.002,0.002c0,0,0.001,0.001,0.002,0.002l0,0c0.001,0,0.001,0.001,0.002,0.002s0.001,0,0.002,0.002c0,0,0,0,0,0 c0.001,0,0,0.001,0.002,0.002c0.001,0.001,0.002,0.001,0.002,0.002c0,0,0.001,0.001,0.002,0.001l0,0 c0.001,0.001,0.001,0.001,0.002,0.002c0,0,0.001,0.001,0.001,0.001c0,0,0.002,0,0.002,0.002c0.001,0.001,0.002,0.001,0.002,0.002 c0.001,0,0.001,0,0.001,0.001h0l5.092,5.095c0.212,0.212,0.317,0.507,0.288,0.806c-0.029,0.298-0.191,0.567-0.44,0.733 l-3.737,2.492l-4.513,4.516l0.314,0.629c0.247,0.494,0.046,1.095-0.448,1.341c-0.496,0.248-1.094,0.046-1.341-0.448l-0.36-0.72 h-1.78L26,24.742V31C26,31.552,25.552,32,25,32z M37.084,30.408c-0.105,0-0.211-0.017-0.316-0.052l-3.819-1.274 c-0.524-0.175-0.807-0.741-0.632-1.265c0.174-0.524,0.741-0.806,1.265-0.632l3.819,1.274c0.524,0.175,0.807,0.741,0.632,1.265 C37.893,30.143,37.503,30.408,37.084,30.408z"/><path fill="#8d6c9f" d="M35.81,59.703c-0.15,0-0.303-0.034-0.446-0.105l-2.546-1.274c-0.458-0.229-0.668-0.767-0.489-1.246 l3.635-9.697l-0.428-0.611l-2.669-1.161c-0.26-0.113-0.46-0.332-0.55-0.601l-1.273-3.821c-0.034-0.102-0.051-0.208-0.051-0.316 v-2.547c0-0.265,0.105-0.52,0.292-0.707l0.98-0.981v-1.413l-3.136-1.046l-6.42-2.568l-2.622-1.307 c-0.235-0.118-0.414-0.323-0.499-0.571l-2.534-7.407C17.018,22.219,17,22.11,17,22v-5c0-0.107,0.017-0.214,0.051-0.316L18,13.838 v-2.38l-1.939-1.674c-0.418-0.361-0.464-0.992-0.104-1.41s0.992-0.465,1.41-0.104l2.286,1.973C19.874,10.433,20,10.709,20,11v3 c0,0.107-0.017,0.214-0.051,0.316L19,17.162v4.671l2.347,6.862l2.18,1.09l6.29,2.514l3.764,1.253 c0.408,0.136,0.684,0.519,0.684,0.949v2.547c0,0.265-0.105,0.52-0.292,0.707l-0.98,0.981v1.971l1.081,3.244l2.52,1.096 c0.169,0.074,0.315,0.192,0.42,0.344l0.891,1.274c0.189,0.27,0.233,0.616,0.117,0.924l-3.503,9.347l1.741,0.871 c0.494,0.247,0.694,0.848,0.447,1.342C36.53,59.501,36.177,59.703,35.81,59.703z"/><path fill="#8d6c9f" d="M34.666,58.429c-0.296,0-0.589-0.131-0.786-0.382c-0.342-0.434-0.267-1.062,0.167-1.404 l11.331-8.916c0.053-0.042,0.11-0.079,0.171-0.108l2.175-1.089l1.142-3.428c0.015-0.045,0.033-0.089,0.054-0.131l1.108-2.216 l-0.407-1.628l-3.9-1.115c-0.164-0.047-0.312-0.134-0.432-0.254l-1.159-1.159l-2.401-1.201c-0.11-0.056-0.209-0.13-0.292-0.222 l-0.966-1.062l-4.412,0.11l-2.347,1.174c-0.494,0.247-1.095,0.047-1.342-0.447c-0.247-0.494-0.047-1.094,0.447-1.342l2.546-1.274 c0.131-0.065,0.275-0.102,0.422-0.105l5.092-0.127c0.291-0.017,0.57,0.112,0.765,0.327l1.148,1.263l2.379,1.19 c0.096,0.048,0.184,0.111,0.26,0.188l1.09,1.09l4.207,1.203c0.344,0.098,0.608,0.372,0.695,0.719l0.637,2.547 c0.058,0.232,0.031,0.477-0.076,0.69l-1.242,2.483l-1.25,3.754c-0.084,0.252-0.264,0.459-0.501,0.579l-2.455,1.228l-11.251,8.853 C35.1,58.359,34.882,58.429,34.666,58.429z"/><path fill="#8d6c9f" d="M32.114,61c-0.394,0-0.788-0.008-1.183-0.025c-8.974-0.264-17.67-5.02-22.684-12.411 c-5.304-7.429-6.719-17.394-3.68-25.987C7.355,14.08,14.337,7.146,22.782,4.506C31.214,1.608,41.021,2.972,48.35,8.08 C56.143,13.147,61,22.302,61,31.955c0,6.11-1.964,12.242-5.532,17.265C50.156,56.559,41.295,61,32.114,61z M31.912,5.006 c-2.888,0-5.773,0.46-8.507,1.4C15.54,8.866,9.058,15.306,6.461,23.223c-2.833,8.01-1.516,17.274,3.428,24.2 c4.672,6.889,12.757,11.309,21.113,11.555c8.953,0.373,17.694-3.812,22.84-10.923c3.324-4.68,5.157-10.4,5.157-16.1 c0-8.847-4.619-17.568-11.767-22.216C42.769,6.628,37.335,5.006,31.912,5.006z"/><path fill="#8d6c9f" d="M58.727,32.955c-0.062,0-0.124-0.006-0.186-0.018c-0.307-0.058-0.569-0.256-0.708-0.535 l-2.546-5.095c-0.042-0.085-0.073-0.176-0.09-0.27l-1.146-6.369c-0.006-0.033-0.01-0.067-0.013-0.101l-0.334-4.343l-2.981-1.172 c-0.383-0.15-0.634-0.52-0.634-0.931v-0.923l-2.836-3.547c-0.345-0.431-0.275-1.061,0.156-1.405 c0.432-0.345,1.06-0.275,1.406,0.156l3.055,3.821c0.142,0.177,0.219,0.397,0.219,0.625v0.592l2.93,1.152 c0.357,0.14,0.602,0.472,0.631,0.854l0.378,4.917l1.112,6.178l1.895,3.791l0.296-0.267c0.411-0.369,1.042-0.336,1.413,0.074 c0.37,0.411,0.336,1.043-0.074,1.413l-1.273,1.146C59.211,32.864,58.972,32.955,58.727,32.955z M39.63,11.301 c-0.262,0-0.517-0.103-0.707-0.293l-2.38-2.38l-3.595-1.199c-0.329-0.11-0.577-0.382-0.657-0.719 c-0.08-0.337,0.021-0.692,0.266-0.937L34.85,3.48c0.204-0.204,0.49-0.314,0.773-0.291c1.876,0.125,3.474,0.584,5.165,1.071 l0.39,0.112c0.521,0.149,0.828,0.685,0.694,1.209l-1.273,4.967c-0.089,0.348-0.358,0.622-0.705,0.716 C39.807,11.289,39.718,11.301,39.63,11.301z M35.115,6.043L37.4,6.805c0.147,0.049,0.281,0.132,0.391,0.242l1.306,1.307 l0.596-2.326c-1.248-0.355-2.458-0.672-3.758-0.805L35.115,6.043z"/><g><path fill="#8d6c9f" d="M15.948,49.463c-0.252,0-0.504-0.095-0.699-0.285c-0.395-0.386-0.403-1.019-0.017-1.414 l1.397-1.431c0.386-0.395,1.019-0.402,1.414-0.017c0.395,0.386,0.403,1.019,0.017,1.414l-1.397,1.431 C16.468,49.363,16.208,49.463,15.948,49.463z"/><path fill="#8d6c9f" d="M12.441,45.079c-0.335,0-0.663-0.168-0.852-0.474c-0.291-0.47-0.145-1.086,0.325-1.376 l1.701-1.052c0.471-0.29,1.086-0.146,1.376,0.325c0.291,0.47,0.145,1.086-0.325,1.376l-1.701,1.052 C12.802,45.03,12.621,45.079,12.441,45.079z"/><path fill="#8d6c9f" d="M10.085,39.98c-0.423,0-0.816-0.271-0.952-0.696c-0.168-0.526,0.123-1.089,0.648-1.257 l1.905-0.608c0.523-0.167,1.088,0.122,1.257,0.648c0.168,0.526-0.123,1.089-0.648,1.257l-1.905,0.608 C10.289,39.964,10.186,39.98,10.085,39.98z"/><path fill="#8d6c9f" d="M9.054,34.457c-0.524,0-0.964-0.408-0.997-0.938c-0.034-0.551,0.385-1.026,0.936-1.061 l1.996-0.125c0.563-0.035,1.026,0.384,1.061,0.936s-0.385,1.026-0.936,1.061l-1.996,0.125 C9.096,34.456,9.075,34.457,9.054,34.457z"/></g></svg>