<svg xmlns="http://www.w3.org/2000/svg" viewBox="0 0 64 64" width="256px" height="256px"><path fill="#faefde" d="M60,24.44A29,29,0,1,0,38.79,60.2a10,10,0,0,0,4.63-16.77l-1.18-1.18A6,6,0,0,1,46.49,32H54.2A6,6,0,0,0,60,24.44Z"/><path fill="#fff7f0" d="M51.48,10.52h0a4.64,4.64,0,0,1-5.84.54A24.94,24.94,0,0,0,32,7c-.53,0-1.06,0-1.6,0A25.29,25.29,0,0,0,7,30.4a24.83,24.83,0,0,0,3.37,14.24,4.61,4.61,0,0,1-.68,5.62l-.15.15A29,29,0,0,1,51.48,10.52Z"/><path fill="#72caaf" d="M32 8A4 4 0 1 0 32 16A4 4 0 1 0 32 8Z"/><path fill="#ed7899" d="M45 13A4 4 0 1 0 45 21A4 4 0 1 0 45 13Z"/><path fill="#bbdef9" d="M19 13A4 4 0 1 0 19 21A4 4 0 1 0 19 13Z"/><path fill="#f9e3ae" d="M12 26A4 4 0 1 0 12 34A4 4 0 1 0 12 26Z"/><path fill="#cda1a7" d="M16 40A4 4 0 1 0 16 48A4 4 0 1 0 16 40Z"/><path fill="#fff" d="M34 45A5 5 0 1 0 34 55A5 5 0 1 0 34 45Z"/><path fill="#8d6c9f" d="M61,24.18A29.72,29.72,0,0,0,51.63,9.37,30.1,30.1,0,0,0,30.09,2.06a30,30,0,0,0-28,28,29.76,29.76,0,0,0,8.08,22.45A30,30,0,0,0,39,61.17,10.75,10.75,0,0,0,47,53.53a10.9,10.9,0,0,0-2.82-10.81L43,41.54A5,5,0,0,1,46.49,33H54.2a7,7,0,0,0,7-7A7.19,7.19,0,0,0,61,24.18ZM58.18,29a5,5,0,0,1-4,2H46.49a7,7,0,0,0-5,12l1.18,1.18A9,9,0,0,1,45,53a8.78,8.78,0,0,1-6.46,6.24A28.22,28.22,0,0,1,32,60,28,28,0,0,1,4.06,30.21,28,28,0,0,1,30.21,4.06Q31.08,4,32,4A28.18,28.18,0,0,1,49,9.76c.42.32.83.65,1.22,1A27.73,27.73,0,0,1,59,24.7,5,5,0,0,1,58.18,29Z"/><path fill="#8d6c9f" d="M32 17a5 5 0 1 0-5-5A5 5 0 0 0 32 17zm0-8a3 3 0 1 1-3 3A3 3 0 0 1 32 9zM45 12a5 5 0 1 0 5 5A5 5 0 0 0 45 12zm0 8a3 3 0 1 1 3-3A3 3 0 0 1 45 20zM19 22a5 5 0 1 0-5-5A5 5 0 0 0 19 22zm0-8a3 3 0 1 1-3 3A3 3 0 0 1 19 14zM17 30a5 5 0 1 0-5 5A5 5 0 0 0 17 30zM9 30a3 3 0 1 1 3 3A3 3 0 0 1 9 30zM16 39a5 5 0 1 0 5 5A5 5 0 0 0 16 39zm0 8a3 3 0 1 1 3-3A3 3 0 0 1 16 47zM34 44a6 6 0 1 0 6 6A6 6 0 0 0 34 44zm0 10a4 4 0 1 1 4-4A4 4 0 0 1 34 54zM41.38 26.26a1 1 0 0 0-1.71 1A9 9 0 0 1 40.5 29a1 1 0 1 0 1.89-.66A11 11 0 0 0 41.38 26.26zM30.5 21.1a1 1 0 1 0 .27 2 9.07 9.07 0 0 1 6.43 1.57A1 1 0 0 0 38.36 23 10.93 10.93 0 0 0 32 21 11.06 11.06 0 0 0 30.5 21.1zM21 31a1 1 0 0 0 0 2h2a1 1 0 0 0 0-2zM26.13 25.57a1 1 0 0 0 .87.5.84.84 0 0 0 .5-.14 1 1 0 0 0 .37-1.37l-1-1.73a1 1 0 0 0-1.73 1zM24.94 35.5a1 1 0 0 0-1.37-.37l-1.73 1a1 1 0 0 0-.37 1.37 1.05 1.05 0 0 0 .88.53.84.84 0 0 0 .48-.16l1.73-1A1 1 0 0 0 24.94 35.5zM21.47 26.5a1 1 0 0 0 .37 1.37l1.73 1a.84.84 0 0 0 .48.16 1.05 1.05 0 0 0 .88-.53 1 1 0 0 0-.37-1.37l-1.73-1A1 1 0 0 0 21.47 26.5zM27.5 38.06a1 1 0 0 0-1.37.37l-1 1.73a1 1 0 0 0 .37 1.37.84.84 0 0 0 .5.14 1 1 0 0 0 .87-.5l1-1.73A1 1 0 0 0 27.5 38.06z"/></svg>