<svg xmlns="http://www.w3.org/2000/svg" viewBox="0 0 64 64" width="256px" height="256px"><path fill="#f9dd8f" d="M42,15c-2.206,0-4-1.794-4-4s1.794-4,4-4s4,1.794,4,4S44.206,15,42,15"/><path fill="#faefde" d="M42,15c-2.206,0-4-1.794-4-4s1.794-4,4-4s4,1.794,4,4S44.206,15,42,15"/><path fill="#8d6c9f" d="M42,16c-2.757,0-5-2.243-5-5s2.243-5,5-5s5,2.243,5,5S44.757,16,42,16z M42,8c-1.654,0-3,1.346-3,3 s1.346,3,3,3s3-1.346,3-3S43.654,8,42,8z"/><path fill="#f9dd8f" d="M19,17c-2.206,0-4-1.794-4-4s1.794-4,4-4s4,1.794,4,4S21.206,17,19,17"/><path fill="#faefde" d="M19,17c-2.206,0-4-1.794-4-4s1.794-4,4-4s4,1.794,4,4S21.206,17,19,17"/><path fill="#8d6c9f" d="M19,18c-2.757,0-5-2.243-5-5s2.243-5,5-5s5,2.243,5,5S21.757,18,19,18z M19,10c-1.654,0-3,1.346-3,3 s1.346,3,3,3s3-1.346,3-3S20.654,10,19,10z"/><path fill="#85cbf8" d="M22.979,57c-0.711,0-1.386-0.308-1.852-0.845s-0.675-1.249-0.574-1.952l1.504-8.325l-2.814-5.629 C18.86,39.483,18.078,39,17.222,39h-1.716c-0.893,0-1.563,0.817-1.388,1.693l2.3,13.501c0.099,0.669-0.11,1.395-0.583,1.943 S14.677,57,13.953,57c-1.22,0-2.251-0.873-2.452-2.076L8.228,37.288c-0.112-0.682,0.035-1.422,0.423-2.042l4.573-9.317 l-7.885-9.856c-0.178-0.221-0.252-0.509-0.206-0.79l1.353-8.113c0.171-1.023,0.909-1.917,1.926-2.121 c0.895-0.179,1.784,0.145,2.348,0.822c0.462,0.553,0.652,1.276,0.524,1.985l-1.362,6.412l5.678,6.813l6.882-1.147l5.668-5.668 l-1.421-4.134c-0.299-0.751-0.216-1.515,0.21-2.144C27.362,7.36,28.041,7,28.8,7c0.925,0,1.745,0.556,2.089,1.415l1.771,5.915 c0.141,0.361,0.12,0.685-0.028,0.947l-9.117,10.63l-0.038,0.059C23.165,26.45,23,27.011,23,27.588v8.624l3.856,8.678 c0.075,0.169,0.103,0.355,0.078,0.539l-1.515,9.375C25.246,56.086,24.202,57,22.979,57z"/><path fill="#8d6c9f" d="M8.899,6c0.579,0,0.933,0.32,1.092,0.511c0.157,0.188,0.404,0.585,0.311,1.143l-1.259,5.931 c-0.127,0.6,0.027,1.225,0.42,1.696l5,6C14.847,21.741,15.412,22,16,22c0.109,0,0.219-0.009,0.329-0.027l6-1 c0.411-0.069,0.791-0.264,1.085-0.559l5-5c0.54-0.54,0.726-1.341,0.477-2.064l-1.217-3.543c-0.011-0.031-0.022-0.062-0.035-0.093 c-0.222-0.556,0.014-1,0.125-1.165C27.877,8.384,28.201,8,28.8,8c0.491,0,0.929,0.281,1.133,0.723l1.768,5.895 c0.015,0.05,0.032,0.099,0.051,0.148L22.8,25.204c-0.06,0.07-0.115,0.143-0.164,0.221C22.22,26.071,22,26.819,22,27.587V36 c0,0.28,0.059,0.557,0.172,0.812l3.77,8.482l-1.517,9.392c-0.003,0.018-0.006,0.036-0.008,0.055C24.321,55.459,23.703,56,22.979,56 c-0.576,0-0.934-0.313-1.096-0.5c-0.159-0.184-0.413-0.573-0.344-1.128l1.43-8.02c0.076-0.424,0.012-0.861-0.18-1.245l-3-6 C19.45,38.428,18.758,38,18,38h-3c-0.59,0-1.149,0.26-1.529,0.711c-0.38,0.451-0.542,1.046-0.442,1.627l2.393,13.956 c0.088,0.586-0.177,0.997-0.343,1.19C14.912,55.677,14.545,56,13.953,56c-0.729,0-1.345-0.522-1.472-1.277L9.222,37.165 c-0.08-0.482,0.018-0.975,0.277-1.389c0.039-0.062,0.074-0.126,0.106-0.192l4.197-8.716c0.334-0.693,0.24-1.516-0.24-2.117 L6.12,15.448l1.377-8.259C7.611,6.5,8.201,6,8.899,6 M8.899,4C7.226,4,5.798,5.21,5.523,6.86l-1.377,8.259 c-0.093,0.561,0.056,1.134,0.411,1.578L12,26l-4.197,8.716c-0.517,0.827-0.714,1.815-0.554,2.778l3.266,17.594 C10.795,56.768,12.249,58,13.953,58c2.131,0,3.763-1.895,3.447-4.003L15,40h3l3,6l-1.437,8.061C19.266,56.14,20.879,58,22.979,58 c1.73,0,3.192-1.28,3.421-2.995l1.526-9.445c0.049-0.366-0.005-0.739-0.155-1.077L24,36v-8.413c0-0.384,0.11-0.759,0.318-1.082 l9.125-10.639c0.35-0.544,0.415-1.224,0.175-1.824l-1.8-6C31.324,6.809,30.129,6,28.8,6c-2.299,0-3.871,2.322-3.017,4.457L27,14 l-5,5l-6,1l-5-6l1.266-5.965C12.648,5.934,11.034,4,8.899,4L8.899,4z"/><path fill="#f283a5" d="M51.217,57c-1.313,0-2.393-0.986-2.512-2.295l-0.733-7.998l-2.947-5.893 c-0.413-0.826-1.58-0.858-2.038-0.057l-3.888,6.804l-2.312,7.684C36.457,56.331,35.558,57,34.518,57 c-0.75,0-1.435-0.346-1.88-0.948s-0.574-1.359-0.354-2.075l2.645-8.605L38,37.182V27.35c0-1.02-1.233-1.531-1.954-0.809L34,28.586 l0,5.96c0,1.223-0.881,2.71-1.995,3.213c-0.916,0.414-1.694,0.292-2.278-0.343c-0.523-0.568-0.803-1.462-0.73-2.333L29,33 c0-2.179-0.262-5.152,2-8l4-4c1.284-1.284,3.28-2.142,5.243-2.355l6.36-0.705l6.144-10.27l0.028-0.068 c0.256-0.619,0.713-1.153,1.322-1.433c1.15-0.529,2.373-0.284,3.188,0.531c0.868,0.868,1.058,2.224,0.462,3.296L49,26v10.212 l4.021,9.048l0.714,9.067c0.048,0.677-0.19,1.352-0.673,1.869C52.58,56.715,51.925,57,51.217,57z"/><g><path fill="#8d6c9f" d="M55.341,6.889c0.328,0,0.81,0.09,1.238,0.518c0.554,0.554,0.675,1.419,0.295,2.104l-8.621,15.518 C48.087,25.326,48,25.66,48,26v10c0,0.28,0.059,0.557,0.172,0.812l3.861,8.687l0.702,8.87c0.03,0.426-0.113,0.833-0.404,1.146 C52.04,55.828,51.644,56,51.217,56c-0.793,0-1.445-0.595-1.516-1.385l-0.709-7.796c-0.023-0.248-0.091-0.49-0.203-0.713l-3-6 c-0.33-0.66-0.996-1.084-1.733-1.105C44.037,39,44.018,39,44,39c-0.716,0-1.38,0.384-1.736,1.008l-4,7 c-0.075,0.132-0.135,0.272-0.179,0.418l-2.287,7.622C35.627,55.617,35.112,56,34.518,56c-0.429,0-0.82-0.198-1.075-0.542 c-0.255-0.345-0.328-0.777-0.202-1.187l2.654-8.625l2.979-7.944C38.957,37.478,39,37.24,39,37V27c0-0.809-0.487-1.538-1.235-1.848 C37.518,25.05,37.258,25,37,25c-0.52,0-1.032,0.203-1.415,0.586l-2,2C33.211,27.961,33,28.47,33,29v6c0,2-1.505,2-2,2 c-0.155,0-0.341-0.03-0.549-0.256c-0.328-0.357-0.508-0.976-0.458-1.578C29.998,35.111,30,35.055,30,35v-7 c0-0.952,0.559-1.63,1.29-2.419l0.173-0.188l5.002-4.898c0.019-0.019,0.038-0.038,0.057-0.058c0.277-0.205,1.287-0.515,2.212-0.617 l7.487-0.832c0.621-0.069,1.175-0.425,1.495-0.961l5.85-9.779c0.051-0.085,0.095-0.174,0.133-0.265 C54.032,7.176,54.765,6.889,55.341,6.889 M55.341,4.889c-1.448,0-2.872,0.829-3.49,2.332L46,17l-7.487,0.832 c-0.975,0.108-2.791,0.505-3.447,1.234L30.027,24C29.366,24.734,28,26,28,28v7c-0.163,1.956,1,4,3,4c3,0,4-2.147,4-4v-6l2-2v10 l-3,8l-2.671,8.682C30.668,55.828,32.273,58,34.518,58c1.473,0,2.772-0.966,3.196-2.378L40,48l4-7l3,6l0.709,7.796 C47.874,56.611,49.395,58,51.217,58c2.044,0,3.659-1.734,3.514-3.774L54,45l-4-9V26l8.621-15.518 c0.816-1.469,0.56-3.301-0.629-4.49C57.242,5.242,56.286,4.889,55.341,4.889L55.341,4.889z"/></g><g><path fill="#8d6c9f" d="M7 64c-.552 0-1-.448-1-1v-2c0-.552.448-1 1-1s1 .448 1 1v2C8 63.552 7.552 64 7 64zM12 64c-.552 0-1-.448-1-1v-2c0-.552.448-1 1-1s1 .448 1 1v2C13 63.552 12.552 64 12 64zM17 64c-.552 0-1-.448-1-1v-2c0-.552.448-1 1-1s1 .448 1 1v2C18 63.552 17.552 64 17 64zM22 64c-.552 0-1-.448-1-1v-2c0-.552.448-1 1-1s1 .448 1 1v2C23 63.552 22.552 64 22 64zM27 64c-.552 0-1-.448-1-1v-2c0-.552.448-1 1-1s1 .448 1 1v2C28 63.552 27.552 64 27 64zM32 64c-.552 0-1-.448-1-1v-2c0-.552.448-1 1-1s1 .448 1 1v2C33 63.552 32.552 64 32 64zM37 64c-.552 0-1-.448-1-1v-2c0-.552.448-1 1-1s1 .448 1 1v2C38 63.552 37.552 64 37 64zM42 64c-.552 0-1-.448-1-1v-2c0-.552.448-1 1-1s1 .448 1 1v2C43 63.552 42.552 64 42 64zM47 64c-.552 0-1-.448-1-1v-2c0-.552.448-1 1-1s1 .448 1 1v2C48 63.552 47.552 64 47 64zM52 64c-.552 0-1-.448-1-1v-2c0-.552.448-1 1-1s1 .448 1 1v2C53 63.552 52.552 64 52 64zM57 64c-.552 0-1-.448-1-1v-2c0-.552.448-1 1-1s1 .448 1 1v2C58 63.552 57.552 64 57 64z"/></g></svg>