<svg xmlns="http://www.w3.org/2000/svg" viewBox="0 0 64 64" width="256px" height="256px"><path fill="#85cbf8" d="M13,26l-6.999,3.723C2.936,31.289,1,34.491,1,37.994v7.196c0,1,0.81,1.81,1.81,1.81h34.38 c1,0,1.81-0.81,1.81-1.81v-7.196c0-3.503-1.936-6.705-5.001-8.271L27,26H13z"/><path fill="#8d6c9f" d="M37.19,48H2.81C1.26,48,0,46.74,0,45.19v-7.759c0-3.852,2.146-7.304,5.599-9.009L12.528,25h14.943 l6.93,3.422C37.854,30.127,40,33.58,40,37.431v7.759C40,46.74,38.74,48,37.19,48z M12.995,27l-6.511,3.215 C3.718,31.581,2,34.346,2,37.431v7.759C2,45.637,2.363,46,2.81,46h34.38c0.446,0,0.81-0.363,0.81-0.81v-7.759 c0-3.085-1.718-5.85-4.484-7.216L27.005,27H12.995z"/><path fill="#bf9e99" d="M10.336,15.714C10.336,24.643,15.72,30,20.158,30s9.821-5.357,9.821-14.286 C29.979,10.29,25.582,5,20.158,5S10.336,10.29,10.336,15.714z"/><path fill="#8d6c9f" d="M23.495,30c-0.348,0-0.687-0.182-0.871-0.506c-0.272-0.48-0.104-1.09,0.376-1.363 c2.877-1.634,5.952-5.754,5.952-12.416C28.952,10.63,24.685,6,20,6s-8.952,4.63-8.952,9.714c0,6.292,2.841,10.396,5.5,12.14 c0.462,0.303,0.591,0.923,0.288,1.385c-0.303,0.463-0.923,0.592-1.385,0.288c-4.01-2.629-6.404-7.792-6.404-13.812 C9.048,9.474,14.166,4,20,4s10.952,5.474,10.952,11.714c0,7.52-3.598,12.243-6.965,14.155C23.832,29.958,23.662,30,23.495,30z"/><path fill="#f283a5" d="M37,26l-6.999,3.723C26.936,31.289,25,34.491,25,37.994v7.196c0,1,0.81,1.81,1.81,1.81h34.38 c1,0,1.81-0.81,1.81-1.81v-7.196c0-3.503-1.936-6.705-5.001-8.271L51,26H37z"/><path fill="#8d6c9f" d="M61.19,48H26.81C25.26,48,24,46.74,24,45.19v-7.759c0-3.852,2.146-7.304,5.599-9.009L36.528,25 h14.943l6.93,3.422C61.854,30.127,64,33.58,64,37.431v7.759C64,46.74,62.74,48,61.19,48z M36.995,27l-6.511,3.215 C27.718,31.581,26,34.346,26,37.431v7.759c0,0.446,0.363,0.81,0.81,0.81h34.38c0.446,0,0.81-0.363,0.81-0.81v-7.759 c0-3.085-1.718-5.85-4.484-7.216L51.005,27H36.995z"/><path fill="#e2c2a7" d="M34.021,15.714c0,8.929,5.383,14.286,9.821,14.286s9.821-5.357,9.821-14.286 C53.664,10.29,49.266,5,43.842,5S34.021,10.29,34.021,15.714z"/><path fill="#8d6c9f" d="M47.495,30c-0.348,0-0.687-0.182-0.871-0.506c-0.272-0.48-0.104-1.09,0.376-1.363 c2.877-1.634,5.952-5.754,5.952-12.416C52.952,10.63,48.685,6,44,6s-8.952,4.63-8.952,9.714c0,6.662,3.075,10.782,5.952,12.416 c0.48,0.273,0.648,0.883,0.376,1.363c-0.272,0.481-0.883,0.649-1.363,0.376c-3.367-1.913-6.965-6.635-6.965-14.155 C33.048,9.474,38.166,4,44,4s10.952,5.474,10.952,11.714c0,7.52-3.598,12.243-6.965,14.155C47.832,29.958,47.662,30,47.495,30z"/><path fill="#72caaf" d="M24,35.5l-7.472,3.736C13.14,40.93,11,44.393,11,48.18V57c0,1.105,0.895,2,2,2h38 c1.105,0,2-0.895,2-2v-8.82c0-3.788-2.14-7.25-5.528-8.944L40,35.5"/><path fill="#faefde" d="M21,24c0,10,6.029,16,11,16s11-6,11-16c0-6.075-4.925-12-11-12S21,17.925,21,24z"/><path fill="#8d6c9f" d="M51,60H13c-1.654,0-3-1.346-3-3v-8.82c0-4.193,2.33-7.963,6.081-9.839l7.472-3.736l0.895,1.789 l-7.472,3.736C13.906,41.665,12,44.75,12,48.18V57c0,0.551,0.449,1,1,1h38c0.551,0,1-0.449,1-1v-8.82 c0-3.431-1.906-6.515-4.975-8.05l-7.472-3.736l0.895-1.789l7.472,3.736C51.67,40.217,54,43.987,54,48.18V57 C54,58.654,52.654,60,51,60z"/><path fill="#8d6c9f" d="M32 41c-5.795 0-12-6.831-12-17 0-6.925 5.607-13 12-13s12 6.075 12 13C44 34.169 37.795 41 32 41zM32 13c-5.233 0-10 5.243-10 11 0 9.787 5.808 15 10 15s10-5.213 10-15C42 18.243 37.233 13 32 13zM17 56c-.552 0-1-.448-1-1v-2c0-.552.448-1 1-1s1 .448 1 1v2C18 55.552 17.552 56 17 56zM22 56c-.552 0-1-.448-1-1v-2c0-.552.448-1 1-1s1 .448 1 1v2C23 55.552 22.552 56 22 56zM27 56c-.552 0-1-.448-1-1v-2c0-.552.448-1 1-1s1 .448 1 1v2C28 55.552 27.552 56 27 56zM32 56c-.552 0-1-.448-1-1v-2c0-.552.448-1 1-1 .552 0 1 .448 1 1v2C33 55.552 32.552 56 32 56zM37 56c-.552 0-1-.448-1-1v-2c0-.552.448-1 1-1s1 .448 1 1v2C38 55.552 37.552 56 37 56zM42 56c-.552 0-1-.448-1-1v-2c0-.552.448-1 1-1s1 .448 1 1v2C43 55.552 42.552 56 42 56zM47 56c-.552 0-1-.448-1-1v-2c0-.552.448-1 1-1s1 .448 1 1v2C48 55.552 47.552 56 47 56z"/></svg>