<svg xmlns="http://www.w3.org/2000/svg" viewBox="0 0 64 64" width="256px" height="256px"><path fill="#ced8ed" d="M5 9H59V19H5z"/><path fill="#8b8e98" d="M5 19H59V55H5z"/><path fill="#8d6c9f" d="M55,18H51a1,1,0,0,0,0,2h4a1,1,0,0,0,0-2Z"/><path fill="#8d6c9f" d="M57,8H7a3,3,0,0,0-3,3V53a3,3,0,0,0,3,3H57a3,3,0,0,0,3-3V11A3,3,0,0,0,57,8Zm1,45a1,1,0,0,1-1,1H7a1,1,0,0,1-1-1V20H47a1,1,0,0,0,0-2H6V11a1,1,0,0,1,1-1H57a1,1,0,0,1,1,1Z"/><path fill="#8d6c9f" d="M20 12a1 1 0 0 0-1 1v2a1 1 0 0 0 2 0V13A1 1 0 0 0 20 12zM15 12a1 1 0 0 0-1 1v2a1 1 0 0 0 2 0V13A1 1 0 0 0 15 12zM10 12a1 1 0 0 0-1 1v2a1 1 0 0 0 2 0V13A1 1 0 0 0 10 12zM35 12a1 1 0 0 0-1 1v2a1 1 0 0 0 2 0V13A1 1 0 0 0 35 12zM40 12a1 1 0 0 0-1 1v2a1 1 0 0 0 2 0V13A1 1 0 0 0 40 12zM45 12a1 1 0 0 0-1 1v2a1 1 0 0 0 2 0V13A1 1 0 0 0 45 12zM51 15V13a1 1 0 0 0-2 0v2a1 1 0 0 0 2 0zM55 12a1 1 0 0 0-1 1v2a1 1 0 0 0 2 0V13A1 1 0 0 0 55 12zM25 12a1 1 0 0 0-1 1v2a1 1 0 0 0 2 0V13A1 1 0 0 0 25 12zM30 12a1 1 0 0 0-1 1v2a1 1 0 0 0 2 0V13A1 1 0 0 0 30 12z"/><path fill="#faefde" d="M41.71 30.29a1 1 0 0 0-1.41 1.41L45.59 37l-5.29 5.29a1 1 0 1 0 1.41 1.41l6-6a1 1 0 0 0 0-1.41zM23.71 30.29a1 1 0 0 0-1.41 0l-6 6a1 1 0 0 0 0 1.41l6 6a1 1 0 0 0 1.41-1.41L18.41 37l5.29-5.29A1 1 0 0 0 23.71 30.29zM35.24 24a1 1 0 0 0-1.21.73l-6 24a1 1 0 1 0 1.94.49l6-24A1 1 0 0 0 35.24 24z"/></svg>