<svg xmlns="http://www.w3.org/2000/svg" viewBox="0 0 64 64" width="256px" height="256px"><path fill="#72caaf" fill-rule="evenodd" d="M38,49H28c-0.552,0-1,0.448-1,1v8c0,0.552,0.448,1,1,1h10 c0.552,0,1-0.448,1-1v-8C39,49.448,38.552,49,38,49z" clip-rule="evenodd"/><path fill="#5dbc9d" fill-rule="evenodd" d="M34 49H39V59H34z" clip-rule="evenodd"/><path fill="#72caaf" d="M38,45H28c-0.552,0-1-0.448-1-1V34c0-2.761,2.239-5,5-5h7v-9c0-0.552-0.448-1-1-1H28 c-0.552,0-1,0.448-1,1v4c0,0.552-0.448,1-1,1H16c-0.552,0-1-0.448-1-1V12c0-2.761,2.239-5,5-5h28c2.761,0,5,2.239,5,5v22 c0,2.761-2.239,5-5,5h-9v5C39,44.552,38.552,45,38,45z"/><path fill="#5dbc9d" d="M48,7v32h0c2.761,0,5-2.239,5-5V12C53,9.239,50.761,7,48,7L48,7z"/><path fill="#8d6c9f" d="M38 60H28c-1.103 0-2-.897-2-2v-8c0-1.103.897-2 2-2h10c1.103 0 2 .897 2 2v8C40 59.103 39.103 60 38 60zM28 50v8h10v-8H28zM38 46H28c-1.103 0-2-.897-2-2V34c0-3.309 2.691-6 6-6h6v-8H28v4c0 1.103-.897 2-2 2H16c-1.103 0-2-.897-2-2V12c0-3.309 2.691-6 6-6h28c3.309 0 6 2.691 6 6v22c0 3.309-2.691 6-6 6h-8v4C40 45.103 39.103 46 38 46zM32 30c-2.206 0-4 1.794-4 4v10h10.001L38 40c0-1.103.897-2 2-2h8c2.206 0 4-1.794 4-4V12c0-2.206-1.794-4-4-4H20c-2.206 0-4 1.794-4 4v12h10v-4c0-1.103.897-2 2-2h10c1.103 0 2 .897 2 2v8c0 1.103-.897 2-2 2H32z"/><path fill="#8d6c9f" d="M49 14h-2c-.553 0-1-.448-1-1s.447-1 1-1h2c.553 0 1 .448 1 1S49.553 14 49 14zM49 19h-2c-.553 0-1-.448-1-1s.447-1 1-1h2c.553 0 1 .448 1 1S49.553 19 49 19zM49 24h-2c-.553 0-1-.448-1-1s.447-1 1-1h2c.553 0 1 .448 1 1S49.553 24 49 24zM49 29h-2c-.553 0-1-.448-1-1s.447-1 1-1h2c.553 0 1 .448 1 1S49.553 29 49 29zM49 34h-2c-.553 0-1-.448-1-1s.447-1 1-1h2c.553 0 1 .448 1 1S49.553 34 49 34z" opacity=".98"/></svg>