<svg xmlns="http://www.w3.org/2000/svg" viewBox="0 0 64 64" width="256px" height="256px"><path fill="#acb7d0" d="M45 59L19 59 22 55 42 55 45 59z"/><path fill="#a0aecb" d="M27 49H37V55H27z"/><rect width="62" height="40" x="1" y="9" fill="#c2cde7" rx="2" ry="2"/><path fill="#cfd9ed" d="M1 43H63V46H1z"/><path fill="#c5e4fa" d="M1 13H63V43H1z"/><path fill="#e3f2ff" d="M45.93 43L62 26.93 62 13 59.86 13 29.86 43 45.93 43zM19.14 43L25.57 43 55.57 13 49.14 13 19.14 43zM14.86 43L44.86 13 39.5 13 9.5 43 14.86 43z"/><path fill="#fff8f8" d="M20.5 18L21.74 20.26 24 21.5 21.74 22.74 20.5 25 19.26 22.74 17 21.5 19.26 20.26 20.5 18zM49.42 17.16L50.27 18.73 51.84 19.58 50.27 20.44 49.42 22 48.56 20.44 47 19.58 48.56 18.73 49.42 17.16zM54.65 32.7L55.23 33.77 56.3 34.35 55.23 34.94 54.65 36 54.06 34.94 53 34.35 54.06 33.77 54.65 32.7z"/><path fill="#72caaf" d="M49,36.54C48.05,32.22,42.67,29,36.23,29s-11.72,3.28-12.65,7.61c0,.12.19.35.19.35H48.71S49,36.66,49,36.54Z"/><rect width="9.48" height="12.05" x="31.51" y="19.95" fill="#f9e3ae" rx="4" ry="4"/><path fill="#ed7899" d="M7 35H15V39H7zM7 27H15V31H7z"/><path fill="#72caaf" d="M7 19H15V23H7z"/><path fill="#8d6c9f" d="M61,8H3a3,3,0,0,0-3,3V47a3,3,0,0,0,3,3H26v4H23.66a5,5,0,0,0-3.54,1.46l-2.83,2.83A1,1,0,0,0,18,60H46a1,1,0,0,0,.71-1.71l-2.83-2.83A5,5,0,0,0,40.34,54H38V50H61a3,3,0,0,0,3-3V11A3,3,0,0,0,61,8ZM40.34,56a3,3,0,0,1,2.12.88L43.59,58H20.41l1.12-1.12A3,3,0,0,1,23.66,56H40.34ZM36,54H28V50h8Zm25-6H3a1,1,0,0,1-1-1V44H39.08a1,1,0,0,0,0-2H2V11a1,1,0,0,1,1-1H61a1,1,0,0,1,1,1V42H59a1,1,0,0,0,0,2h3v3A1,1,0,0,1,61,48Z"/><path fill="#8d6c9f" d="M44 41a1 1 0 0 0-1 1v2a1 1 0 0 0 2 0V42A1 1 0 0 0 44 41zM49 41a1 1 0 0 0-1 1v2a1 1 0 0 0 2 0V42A1 1 0 0 0 49 41zM54 41a1 1 0 0 0-1 1v2a1 1 0 0 0 2 0V42A1 1 0 0 0 54 41zM60 13a1 1 0 0 0-1-1H55a1 1 0 0 0 0 2h4A1 1 0 0 0 60 13zM51 12H5a1 1 0 0 0 0 2H51a1 1 0 0 0 0-2zM48.49 36.87a1 1 0 0 0 .39-1.36 12.75 12.75 0 0 0-7.81-6A7.53 7.53 0 0 0 42 26V24a6 6 0 0 0-12 0v2a7.53 7.53 0 0 0 .94 3.5 12.75 12.75 0 0 0-7.81 6 1 1 0 0 0 1.75 1 10.78 10.78 0 0 1 7.34-5.23 5 5 0 0 0 7.57 0 10.78 10.78 0 0 1 7.34 5.23 1 1 0 0 0 1.36.39zM36 31c-2.15 0-4-2.75-4-5V24a4 4 0 0 1 8 0v2C40 28.25 38.15 31 36 31zM14 18H8a2 2 0 0 0-2 2v2a2 2 0 0 0 2 2h6a2 2 0 0 0 2-2V20A2 2 0 0 0 14 18zM8 22V20h6v2zM14 26H8a2 2 0 0 0-2 2v2a2 2 0 0 0 2 2h6a2 2 0 0 0 2-2V28A2 2 0 0 0 14 26zM8 30V28h6v2zM14 34H8a2 2 0 0 0-2 2v2a2 2 0 0 0 2 2h6a2 2 0 0 0 2-2V36A2 2 0 0 0 14 34zM8 38V36h6v2z"/></svg>