<svg xmlns="http://www.w3.org/2000/svg" viewBox="0 0 64 64" width="256px" height="256px"><path fill="#cda1a7" stroke="#8d6c9f" stroke-miterlimit="10" stroke-width="2" d="M35.843,26.154c-5.035-5.035-10.518-8.15-13.877-8.173c-0.986-0.007-1.789,0.252-2.344,0.806c-2.444,2.444,0.853,9.707,7.367,16.22s13.774,9.811,16.22,7.367C45.654,39.93,42.356,32.668,35.843,26.154z"/><path fill="#f9dd8f" d="M26.99,35.008c-5.86-5.86-9.102-12.313-7.916-15.332l-0.013-0.015L2.016,59.981l40.32-17.043l-0.012-0.015C39.307,44.11,32.851,40.869,26.99,35.008z"/><path fill="#f6d397" d="M2.016,59.981l40.32-17.043l-0.012-0.015c-2.008,0.79-5.539-0.381-9.405-2.98L2.016,59.981z"/><path fill="#f9e3ae" d="M23.017,30.424c-3.041-4.083-4.607-7.952-4.091-10.273L2.016,59.981L23.017,30.424z"/><path fill="none" stroke="#8d6c9f" stroke-linejoin="round" stroke-miterlimit="10" stroke-width="2" d="M26.99,35.008c-5.86-5.86-9.102-12.313-7.916-15.332l-0.013-0.015L2.164,57.215c-0.699,1.654,0.967,3.32,2.621,2.621l37.552-16.899l-0.012-0.015C39.307,44.11,32.851,40.869,26.99,35.008z"/><path fill="#ed7899" stroke="#8d6c9f" stroke-linejoin="round" stroke-miterlimit="10" stroke-width="2" d="M30.134,7.863c-2.79-2.731-6.641-2.88-7.409-2.882h-0.708v3.999l0.77,0.001c0.646,0.021,2.867,0.556,4.342,2.013c1.032,1.022,1.889,2.545,1.889,4.529c0,4.693-1.773,10.004-2,10.458c0.213-0.143,6-3.575,6-10.458C33.016,12.311,32.047,9.734,30.134,7.863z"/><path fill="#85cbf8" stroke="#8d6c9f" stroke-linejoin="round" stroke-miterlimit="10" stroke-width="2" d="M62.969,36.64c-0.681-6.046-8.509-7.659-13.026-7.659c-9.537,0-15.926,6-15.926,6s6.659-2,15.925-2c0.09,0,9.075,0.354,9.075,4.518v0.482h4v-0.482C63.016,37.203,63,36.917,62.969,36.64z"/><path fill="#f6d397" stroke="#8d6c9f" stroke-linejoin="round" stroke-miterlimit="10" stroke-width="2" d="M36.188 3.153H41.845V8.81H36.188z" transform="rotate(-45.001 39.017 5.981)"/><path fill="#f6d397" stroke="#8d6c9f" stroke-linejoin="round" stroke-miterlimit="10" stroke-width="2" d="M54.042 44.006H58.992000000000004V48.956H54.042z" transform="rotate(-45.001 56.516 46.482)"/><path fill="#ed7899" stroke="#8d6c9f" stroke-linejoin="round" stroke-miterlimit="10" stroke-width="2" d="M56.042 20.006H60.992000000000004V24.956H56.042z" transform="rotate(-45.001 58.516 22.482)"/><g><path fill="#f9dd8f" stroke="#8d6c9f" stroke-linejoin="round" stroke-miterlimit="10" stroke-width="2" d="M32.016,27.981c0,0,0.938-4.375,6.154-6.812c2.498-1.167,4.71-1.545,6.325-1.821c2.205-0.377,2.363-0.526,2.521-0.999c0.104-0.314-0.615-1.241-1.082-1.8c-1.085-1.296-3.104-3.708-0.996-6.244c1.783-2.144,4.618-1.214,6.898-0.465c0.778,0.255,2.572,1.126,3.18,1.141c0,0-0.62-0.763-0.779-1c-0.782-1.162-1.713-3.073-0.953-5.352c1.106-3.32,5.865-3.635,7.719-3.648h0.014c1.105,0,2,0.895,2,2v0c0,1.105-0.895,2-2,2l0,0c-3.509,0.025-3.64,0.45-3.797,0.75c-0.255,0.49,0.182,1.642,0.776,2.708c0.688,1.236,1.971,3.536-0.136,5.643c-1.857,1.859-5.028,0.374-7.23-0.349c-0.687-0.226-1.74-0.672-2.368-0.749c0.208,0.306,0.382,0.705,0.626,0.997c1.068,1.277,2.684,3.206,1.872,5.64c-0.952,2.857-3.498,3.293-5.743,3.677c-1.546,0.264-4.988,0.745-7,1.683C35.665,26.079,32.016,27.981,32.016,27.981z"/></g><g><path fill="#ed7899" stroke="#8d6c9f" stroke-linejoin="round" stroke-miterlimit="10" stroke-width="2" d="M45.229,63c-0.179,0-0.362-0.016-0.551-0.048c-2.489-0.427-3.214-3.315-3.853-5.863c-0.049-0.194-0.104-0.41-0.16-0.632c-0.158,0.33-0.311,0.661-0.442,0.946c-1.264,2.743-2.571,5.578-5.185,5.578c-0.017,0-0.033,0-0.051,0c-1.819-0.026-3.416-1.426-3.949-3.685C30.762,58.121,31.691,57,32.898,57L33,57c1,0,1.467,0.11,2.196,1.463l0,0c0.479-0.749,1.046-1.978,1.395-2.735c1.181-2.562,2.299-4.978,4.634-4.737c2.255,0.236,2.879,2.721,3.481,5.124c0.166,0.664,0.435,1.733,0.704,2.437c0.308-0.365,0.656-0.843,0.904-1.183c1.193-1.634,2.688-3.663,4.959-3.372c2.286,0.296,4.04,2.853,4.638,5.638C56.172,60.852,55.237,62,53.993,62h-0.13c-0.902,0-1.672-0.638-1.855-1.521c-0.233-1.123-0.838-1.989-1.168-2.364c-0.384,0.364-0.937,1.121-1.294,1.612C48.473,61.199,47.158,63,45.229,63z"/></g><g><path fill="#85cbf8" stroke="#8d6c9f" stroke-linejoin="round" stroke-miterlimit="10" stroke-width="2" d="M3.998,6.211L3.998,6.211C3.63,7.228,4.143,8.354,5.147,8.754c2.456,0.977,3.706,1.692,4.335,2.139c-0.578,0.248-1.353,0.511-1.896,0.695c-2.489,0.843-5.311,1.799-5.568,4.398c-0.219,2.204,1.644,3.5,3.14,4.542c0.574,0.399,1.768,1.231,1.853,1.607c-0.079,0.331-1.197,1.113-1.734,1.489c-1.5,1.049-3.367,2.355-3.266,4.648c0.067,1.52,0.728,2.5,1.728,3.288c1.012,0.797,2.496,0.477,3.061-0.68l0,0c0.419-0.858,0.162-1.886-0.591-2.474c-0.256-0.2-0.099-0.2-0.161-0.287c0.247-0.327,1.032-0.876,1.52-1.218c1.504-1.052,3.374-2.36,3.439-4.662c0.07-2.464-2.03-3.927-3.563-4.995c-0.356-0.248-0.833-0.58-1.158-0.854c0.65-0.36,1.861-0.77,2.584-1.015c2.395-0.812,4.871-1.65,5.127-3.975c0.254-2.33-1.848-4.178-7.393-6.375C5.56,4.614,4.38,5.156,3.998,6.211z"/></g><g><path fill="#8d6c9f" d="M8.536 50.685c-.242.497-.036 1.095.46 1.337l1.798.877c.497.242 1.095.036 1.337-.46.242-.497.036-1.095-.46-1.337l-1.798-.877C9.376 49.982 8.778 50.188 8.536 50.685zM10.728 46.191c-.242.497-.036 1.095.46 1.337l1.798.877c.497.242 1.095.036 1.337-.46.242-.497.036-1.095-.46-1.337l-1.798-.877C11.568 45.488 10.97 45.694 10.728 46.191zM12.92 41.697c-.242.497-.036 1.095.46 1.337l1.798.877c.497.242 1.095.036 1.337-.46.242-.497.036-1.095-.46-1.337l-1.798-.877C13.76 40.994 13.162 41.2 12.92 41.697zM15.111 37.203c-.242.497-.036 1.095.46 1.337l1.798.877c.497.242 1.095.036 1.337-.46.242-.497.036-1.095-.46-1.337l-1.798-.877C15.952 36.5 15.354 36.706 15.111 37.203zM17.303 32.709c-.242.497-.036 1.095.46 1.337l1.798.877c.497.242 1.095.036 1.337-.46.242-.497.036-1.095-.46-1.337l-1.798-.877C18.144 32.006 17.546 32.212 17.303 32.709z"/></g></svg>